<?xml version="1.0" standalone="no"?>
<!DOCTYPE svg PUBLIC "-//W3C//DTD SVG 1.1//EN" "http://www.w3.org/Graphics/SVG/1.1/DTD/svg11.dtd" >
<svg xmlns="http://www.w3.org/2000/svg" xmlns:xlink="http://www.w3.org/1999/xlink" version="1.1">
<metadata>
Created by FontForge 20201107 at Wed Apr 17 02:44:44 2013
 By Unknown
LDF
</metadata>
<defs>
<font id="LDFComicSansHairline" horiz-adv-x="560" >
  <font-face 
    font-family="LDFComicSansHairline"
    font-weight="500"
    font-stretch="normal"
    units-per-em="1000"
    panose-1="2 0 6 3 0 0 0 0 0 0"
    ascent="800"
    descent="-200"
    x-height="460.5"
    cap-height="722.5"
    bbox="-77.8 -252 865.8 849"
    underline-thickness="50"
    underline-position="-150"
    unicode-range="U+0020-3000"
  />
<missing-glyph horiz-adv-x="364" 
d="M66 33h199v600h-199v-600zM33 0v666h265v-666h-265z" />
    <glyph glyph-name=".notdef" horiz-adv-x="364" 
d="M66 33h199v600h-199v-600zM33 0v666h265v-666h-265z" />
    <glyph glyph-name=".null" horiz-adv-x="0" 
 />
    <glyph glyph-name="nonmarkingreturn" horiz-adv-x="333" 
 />
    <glyph glyph-name="space" unicode=" " horiz-adv-x="300" 
 />
    <glyph glyph-name="exclam" unicode="!" horiz-adv-x="194" 
d="M119 702q17 -177 17 -452q0 -7 -5.5 -12.5t-12.5 -5.5t-12.5 5.5t-5.5 12.5q0 273 -17 448q0 8 4.5 13.5t12 6t13 -4t6.5 -11.5zM136 57q0 -7 -5.5 -12.5t-12.5 -5.5t-12.5 5.5t-5.5 12.5t5.5 12.5t12.5 5.5t12.5 -5.5t5.5 -12.5z" />
    <glyph glyph-name="quotedbl" unicode="&#x22;" horiz-adv-x="301" 
d="M69 694l6 -228q0 -7 -5 -12.5t-12.5 -5.5t-13 5t-5.5 13q-2 117 -6 226q0 8 5 13.5t12.5 5.5t13 -5t5.5 -12zM238 698q5 -96 5 -232q0 -7 -5.5 -12.5t-12.5 -5.5t-12.5 5.5t-5.5 12.5q0 136 -5 230q0 7 5 12.5t12 6t12.5 -4.5t6.5 -12z" />
    <glyph glyph-name="numbersign" unicode="#" horiz-adv-x="753" 
d="M445 285q15 117 24 212q-128 -2 -242 -8l-14 -117q-6 -47 -16 -106q19 1 109 8zM441 249q-48 -4 -135 -11l-115 -8q-28 -172 -30 -186q-2 -7 -7.5 -11.5t-13 -3t-12 7t-3.5 13.5l30 177q-64 -4 -117 -7q-7 0 -12.5 5t-6 12t4.5 12.5t12 6.5l125 7q9 58 16 113l14 111
q-82 -5 -160 -12q-8 0 -13.5 4.5t-6 12t4 13t11.5 6.5q82 7 168 12q13 104 28 175q1 7 7 11t13.5 2.5t11.5 -7.5t2 -14q-14 -68 -26 -165q114 5 241 8q5 63 8 122q1 7 6.5 12t12.5 4.5t12 -6t5 -12.5q-3 -57 -8 -119q80 1 169 1q7 0 12.5 -5.5t5.5 -12.5t-5.5 -12.5
t-12.5 -5.5q-91 0 -172 -1q-9 -95 -24 -211q104 6 187 8q7 0 12.5 -5t5.5 -12.5t-5 -13t-13 -5.5q-85 -1 -191 -8q-8 -62 -31 -227q-1 -8 -7 -12.5t-13.5 -3.5t-12 7t-3.5 13z" />
    <glyph glyph-name="dollar" unicode="$" horiz-adv-x="637" 
d="M272 440q-2 142 -1 251q-90 -8 -154 -76q-15 -16 -30 -40q-17 -26 -18 -41q-6 -43 37 -64q29 -14 94 -22q12 -2 72 -8zM308 400q0 -41 2 -167.5t3 -195.5q42 5 81 17q81 28 121.5 81.5t20.5 125.5q-26 89 -135 121q-37 11 -93 18zM306 727q120 -5 234 -91q6 -4 7 -11.5
t-3.5 -13.5t-12 -7t-13.5 4q-105 79 -212 83q0 -110 1 -255q63 -7 104 -20q128 -37 159 -145q12 -48 5 -87.5t-32.5 -71.5t-60 -54.5t-77.5 -36.5q-44 -15 -92 -20q1 -69 1 -130q0 -7 -5.5 -12.5t-12.5 -5.5t-12.5 5.5t-5.5 12.5v128q-128 -3 -204 58q-10 8 -18 17
q-7 8 -14.5 19.5t-11.5 18.5l-10 20q-8 14 -10 18q-3 6 -1 13t8.5 10.5t13.5 1.5t11 -9q2 -5 10 -18l10 -20q3 -5 9 -14.5t12 -16t13 -12.5q66 -54 181 -51q0 70 -2 198.5t-3 171.5q-63 7 -76 8q-72 10 -106 27q-65 32 -57 99q3 23 24 56q17 27 34 45q75 80 180 87
q0 55 1 105q0 8 5.5 13t13 5t12.5 -5.5t5 -12.5z" />
    <glyph glyph-name="percent" unicode="%" horiz-adv-x="714" 
d="M157 694q5 11 17 10q5 -1 12 0h14q20 0 33 -6q37 -15 55.5 -51t17.5 -77q0 -41 -19 -76.5t-53 -52.5q-57 -23 -104 -1t-67 72q-21 51 1.5 102t92.5 80zM482 254q-14 -6 -21 -14q-25 -24 -36 -59.5t-4 -67.5q6 -33 29 -52.5t63 -18.5q31 0 53.5 18t33.5 47q10 27 5 58.5
t-25 53.5l-10 9q-4 5 -9.5 8.5t-9 5.5t-10.5 4t-9.5 3t-11.5 2t-11 1t-13.5 1t-13.5 1zM531 285q44 -8 75 -42q27 -30 34 -71.5t-7 -76.5q-13 -38 -44.5 -63t-75.5 -26q-53 -1 -86 27.5t-41 72.5q-8 41 5 85t44 75q8 7 18 13q5 13 19 12q2 0 4 -1l13 6q10 4 16 7t13 1t11 -9
q2 -5 2 -10zM176 663q-60 -23 -78 -61.5t-2 -76.5q15 -37 49 -53t73 1q24 11 38 38t15 60q0 32 -13.5 58t-38.5 37q-6 2 -19 2h-4h-5h-4h-4q-3 -3 -7 -5zM73 50l552 654q5 5 12 5.5t12.5 -4.5t6 -12t-4.5 -13l-550 -652q-5 -6 -12.5 -6.5t-13 4t-6 12t3.5 12.5z" />
    <glyph glyph-name="ampersand" unicode="&#x26;" horiz-adv-x="604" 
d="M264 435l-28 -24q-66 -57 -100 -95q-102 -115 -60 -224q20 -54 60 -73t90 -8q48 10 94 42t72 72q11 16 20 35q-12 22 -38 77t-42 84q-11 21 -66 110zM451 162q44 -83 90 -135q5 -6 4.5 -13t-6 -12t-12.5 -4.5t-12 5.5q-43 48 -83 119q-5 -8 -10 -17q-30 -46 -81.5 -81.5
t-106.5 -47.5q-63 -13 -114.5 11.5t-77.5 92.5q-49 128 68 260q33 37 103 98l32 28q-26 45 -41 82q-10 23 -17 52q-5 19 -7 34q-1 19 4 31q19 43 76 59q59 16 96 -13q50 -39 31 -115q-14 -57 -54 -98q-16 -17 -42 -39l5 -9q56 -91 68 -113q9 -16 65 -131q16 52 23 131
q1 7 6.5 11.5t13 4t12 -6t4.5 -13.5q-10 -104 -37 -171zM273 490q20 18 34 32q34 35 46 83q13 53 -19 78q-23 18 -64.5 6.5t-53.5 -38.5q-1 -3 0 -14q1 -12 5 -28q7 -27 15 -47q14 -33 37 -72z" />
    <glyph glyph-name="quotesingle" unicode="'" horiz-adv-x="168" 
d="M107 693q-3 -73 3 -174q0 -7 -5 -12.5t-12 -6t-12.5 4.5t-6.5 12q-5 102 -3 178q0 7 5.5 12t13 5t12.5 -5.5t5 -13.5z" />
    <glyph glyph-name="parenleft" unicode="(" horiz-adv-x="254" 
d="M183 743q-71 -122 -96 -283t2.5 -322t103.5 -278q4 -6 2.5 -13.5t-7.5 -11.5t-13.5 -2.5t-11.5 7.5q-80 123 -108.5 291t-2.5 335.5t101 294.5q3 6 10.5 8t13.5 -1.5t8 -11t-2 -13.5z" />
    <glyph glyph-name="parenright" unicode=")" horiz-adv-x="244" 
d="M94 766q105 -221 89.5 -472.5t-140.5 -461.5q-3 -6 -10.5 -8t-13.5 1.5t-8 11t2 13.5q120 203 135 445.5t-86 454.5q-3 7 -0.5 14t9 10t13.5 0.5t10 -8.5z" />
    <glyph glyph-name="asterisk" unicode="*" horiz-adv-x="461" 
d="M186 610q84 8 193 47q7 2 13.5 -1t9 -10t-0.5 -13.5t-10 -9.5q-110 -39 -196 -48q4 -10 -4 -18l145 -152q5 -5 5 -12.5t-5.5 -12.5t-13 -5t-12.5 6l-144 150h-1h-1q-69 -67 -121 -148q-4 -6 -11 -7.5t-13.5 2.5t-8 11t2.5 14q56 87 133 160q-1 8 -2 17q-57 6 -124 18
q-7 2 -11.5 8t-3 13t7.5 11.5t13 3.5q63 -12 116 -18q-3 43 -4 103q0 7 5 12.5t12.5 5.5t13 -5t5.5 -13q1 -63 4 -107h3q2 -1 5 -2z" />
    <glyph glyph-name="plus" unicode="+" horiz-adv-x="551" 
d="M247 289q-132 -4 -203 -7q-8 0 -13 5t-5.5 12.5t4.5 12.5t12 6q72 3 205 7q-1 85 -5 198q0 8 5 13.5t12.5 5.5t13 -5t5.5 -12q4 -113 5 -199q121 4 191 7q8 0 13 -5t5.5 -12.5t-4.5 -12.5t-12 -6q-71 -3 -193 -7q1 -114 -3 -212q-1 -7 -6 -12t-12.5 -4.5t-12.5 5.5t-5 13
q4 97 3 209z" />
    <glyph glyph-name="comma" unicode="," horiz-adv-x="218" 
d="M158 70q-2 -6 -31 -80q-19 -50 -35 -80q-3 -7 -10 -9t-14 1t-9 10t1 14q15 30 34 77q27 69 32 81q2 7 9 9.5t14 0t9.5 -9.5t-0.5 -14z" />
    <glyph glyph-name="hyphen" unicode="-" horiz-adv-x="268" 
d="M34 290q23 1 76 3.5t81 4.5q7 0 12.5 -5t6 -12t-4.5 -12.5t-12 -6.5q-28 -1 -81 -4t-76 -4q-7 0 -12.5 5t-6 12t4.5 12.5t12 6.5z" />
    <glyph glyph-name="period" unicode="." horiz-adv-x="185" 
d="M127 60q0 -7 -5.5 -12.5t-12.5 -5.5t-12.5 5.5t-5.5 12.5t5.5 12.5t12.5 5.5t12.5 -5.5t5.5 -12.5z" />
    <glyph glyph-name="slash" unicode="/" horiz-adv-x="329" 
d="M269 692q-25 -59 -54 -155l-21 -71q-16 -56 -27 -89q-24 -76 -69 -203l-56 -162q-3 -7 -9.5 -10t-13.5 -0.5t-10 9t-1 13.5l56 161q46 131 69 202q10 31 27 89l21 71q29 96 56 159q2 7 9 9.5t14 0t9.5 -9.5t-0.5 -14z" />
    <glyph glyph-name="zero" unicode="0" 
d="M262 693q6 4 14 2l29 -5q18 -4 27 -6.5t22 -7t25.5 -11.5t26.5 -18q45 -34 70 -100.5t25.5 -140.5t-13.5 -152q-26 -123 -86 -202q-69 -91 -162 -91q-97 0 -155 107q-49 92 -51 228q-1 65 12 126q13 62 38.5 117t69.5 96t100 57q4 1 8 1zM264 658q-63 -18 -108.5 -74.5
t-66 -130t-20.5 -157.5q1 -126 48 -211q47 -88 123 -88q75 0 134 77q55 72 79 187q24 108 6 211.5t-75 146.5q-12 9 -21.5 14.5t-20.5 9.5t-18.5 5.5t-25 5.5t-29.5 6q-2 -1 -5 -2z" />
    <glyph glyph-name="one" unicode="1" horiz-adv-x="214" 
d="M37 639q5 4 10 9.5t12 14t12 13.5q27 30 55 30q11 0 17 -11q3 -3 4 -9q3 -8 4 -21q2 -21 3 -57q1 -63 0 -93q-3 -40 0 -105q2 -82 2 -107q0 -7 -4 -135q-2 -80 1 -133q0 -7 -5 -12.5t-12 -6t-12.5 4.5t-6.5 12q-3 54 -1 136q4 127 4 134q0 25 -2 106q-2 72 0 108
q2 28 0 90q0 35 -2 54q-1 3 -1 6q-8 -4 -18 -15q-2 -3 -9.5 -12t-14.5 -16.5t-14 -12.5q-6 -4 -13 -3.5t-11.5 6.5t-4 13t6.5 12z" />
    <glyph glyph-name="two" unicode="2" horiz-adv-x="541" 
d="M36 556q80 82 166 119q128 55 193 -39q20 -30 29 -73.5t4 -80.5q-7 -50 -34.5 -85t-70.5 -64q-16 -10 -68.5 -40.5t-76.5 -50.5q-6 -6 -11 -10.5t-9.5 -10.5t-7.5 -9.5t-7.5 -10.5t-6 -10.5t-7 -13.5t-7.5 -14q-14 -25 -30 -68q-10 -25 -13 -41q-1 -7 -1 -11h3
q1 0 6.5 1.5t11.5 2.5t10 1q33 1 102 6t105 6q31 0 76 -4l74 -8q8 -1 12.5 -6.5t4 -13t-6 -12t-12.5 -4.5q-1 0 -75 8q-46 5 -73 4q-34 0 -102 -6q-70 -5 -105 -6q-3 0 -10 -2l-12 -2q-25 -4 -38 10q-6 9 -7 22q0 9 2 21q4 19 14 46q17 46 32 74q3 3 8 13t8 14l7 12
q5 8 9 12l8 12q5 7 11 12l13 12q26 22 83.5 55.5t65.5 39.5q39 25 61.5 54t27.5 69q5 32 -2.5 69t-24.5 61q-47 69 -149 26q-80 -34 -154 -110q-5 -6 -12.5 -6t-13 5t-5.5 12.5t5 12.5z" />
    <glyph glyph-name="three" unicode="3" horiz-adv-x="511" 
d="M70 125q34 -47 83 -71t99 -22q51 2 92.5 32t62.5 88q20 53 0 89q-15 29 -56 48q-29 14 -72 23q-2 1 -27 5q-6 2 -9 2.5t-5 1.5q-3 2 -5 3q-5 5 -6 13q-1 9 7 15l4 2q1 1 2 1q1 1 3 1t8 2q13 3 25 7q38 11 53 22q34 25 51.5 73t5.5 87q-20 66 -109 86q-40 8 -79.5 4.5
t-68.5 -17.5q-2 -1 -11 -9l-21 -21l-32 -35q-5 -5 -12.5 -5.5t-12.5 4.5t-5.5 12.5t4.5 12.5l33 36l21 22q13 12 20 15q35 17 81.5 21t90.5 -5q49 -11 85.5 -38.5t49.5 -72.5q15 -50 -6 -108.5t-63 -89.5q-14 -10 -36 -19q29 -8 51 -19q52 -24 73 -64q26 -49 2 -117
q-25 -68 -75 -104.5t-112 -39.5q-59 -2 -116 26t-96 81q-5 6 -4 13.5t7 12t13.5 3.5t11.5 -7z" />
    <glyph glyph-name="four" unicode="4" horiz-adv-x="577" 
d="M51 325q0 2 -1 1zM388 694q19 -127 21 -326v-56q76 5 92 5q8 0 13 -5.5t5 -13t-5.5 -12.5t-12.5 -5q-16 1 -92 -4q0 -153 5 -233q0 -7 -5 -12.5t-12 -6t-12.5 4.5t-6.5 12q-4 80 -4 233q-72 -5 -121 -6q-91 -3 -145 3q-33 4 -54 11q-27 10 -36 27q-2 4 -2 10v6q1 5 3 14
q2 13 7 35l9 34l3 11v3v1q9 49 22 140l17 129q2 7 8 11.5t13 3t11.5 -7.5t3.5 -13q-6 -37 -18.5 -128.5t-20.5 -140.5q-1 -1 -2 -6l-3 -12l-8 -33q-5 -22 -7 -34q-2 -6 -2 -9q5 -4 14 -7q17 -6 46 -9q51 -6 140 -4q50 2 122 6q0 34 -1 57q-1 197 -21 321q-1 8 3.5 13.5t12 7
t13 -3t7.5 -11.5z" />
    <glyph glyph-name="five" unicode="5" horiz-adv-x="574" 
d="M71 686q80 -3 228.5 1.5t198.5 4.5q7 0 12.5 -5.5t5.5 -12.5t-5.5 -12.5t-12.5 -5.5q-55 0 -190.5 -4t-208.5 -3q-1 -48 -8 -137t-8 -108q-1 -8 -6 -25l16 7q44 20 58 24q111 34 200 0q103 -40 125 -155q12 -61 -8 -116q-21 -55 -63 -90.5t-97.5 -54.5t-112.5 -16
q-42 3 -77 18.5t-75 43.5q-6 5 -7.5 12t3 13t11.5 7.5t13 -2.5q38 -27 68.5 -40.5t65.5 -15.5q69 -4 130.5 25t94.5 86t20 124q-19 95 -104 127q-77 30 -177 0q-12 -4 -53 -22l-27 -12q-6 -2 -10 -3q-2 -1 -4.5 -1.5t-4.5 -0.5q-6 0 -10 3q-18 13 -11 42q1 5 2.5 10t2.5 8
t1 6q1 18 8 107.5t8 138.5q-11 4 -11 17q0 7 5.5 12t13.5 5z" />
    <glyph glyph-name="six" unicode="6" horiz-adv-x="490" 
d="M46 322q-7 -68 3 -133q15 -99 75 -146q64 -49 157 -17q50 17 82.5 76t31.5 127q0 71 -36 115q-40 48 -117 48q-50 0 -89 -17t-84 -54q-12 -10 -23 1zM50 351q47 39 91 58t101 19q93 0 144 -62q45 -53 45 -136q1 -77 -37 -146.5t-101 -91.5q-112 -38 -191 23
q-72 55 -89 168q-21 142 30.5 286.5t162.5 225.5q6 5 13.5 3.5t12 -7t3 -13t-6.5 -11.5q-72 -52 -117.5 -136t-60.5 -180z" />
    <glyph glyph-name="seven" unicode="7" horiz-adv-x="545" 
d="M30 665q150 8 330 8h58q3 0 6 0.5t8.5 2t10.5 2.5q31 6 41 -15q4 -8 1 -17q-1 -5 -4 -10q-5 -9 -14 -22q-14 -20 -43 -56q-75 -92 -75 -93q-61 -93 -93 -180.5t-64 -223.5q-1 -7 -7.5 -11t-13.5 -2.5t-11 8t-2 13.5q32 138 65 228.5t96 187.5q1 2 77 95q28 35 42 54l5 7
q-17 -4 -25 -4h-58q-179 0 -328 -8q-7 0 -12.5 5t-6 12t4.5 12.5t12 6.5z" />
    <glyph glyph-name="eight" unicode="8" horiz-adv-x="516" 
d="M239 697q1 7 7 11t13 3q52 -9 54 -9q13 -5 48 -33q42 -34 62 -70t15 -86q-4 -35 -19.5 -62.5t-40.5 -46.5t-49 -30.5t-57 -23.5l3 -1q26 -4 43.5 -8.5t40 -13t40.5 -23.5t31 -37q8 -12 19 -55q16 -67 1.5 -117t-54.5 -84q-39 -32 -93.5 -43.5t-114.5 1.5q-45 9 -81.5 38
t-55.5 69t-22.5 87t17.5 90q23 51 87 83l18 8q-25 13 -43 32q-48 51 -31 150q7 42 25 79t44 56q25 19 44 25.5t49 10.5zM203 326q-33 -11 -54 -22q-53 -27 -71 -65q-19 -51 -11 -99.5t44 -87.5t85 -49q53 -10 99 -0.5t78 35.5q70 58 42 164q-10 39 -15 47q-19 30 -49.5 43.5
t-81.5 21.5q-52 9 -66 12zM267 665q-9 -1 -25 -3.5t-21.5 -3.5t-15.5 -4t-19 -8q-8 -5 -18 -13q-19 -15 -34 -45q-16 -31 -22 -68q-14 -82 22 -120q23 -25 67 -37l49 17q72 25 108 54q38 29 44 83q5 38 -11 66.5t-52 57.5q-31 25 -38 27q-4 2 -23 4q-4 -5 -11 -7z" />
    <glyph glyph-name="nine" unicode="9" horiz-adv-x="496" 
d="M384 338q8 30 13 65q14 93 -11 152q-28 67 -109 91q-17 5 -48 8q-33 4 -46 1q-32 -9 -63 -45q-32 -36 -52 -86q-20 -49 -19 -95t24 -71q48 -52 136 -47q70 3 151 40q6 3 13 0.5t10 -9.5q1 -2 1 -4zM380 323q-2 -3 -6 -4q-87 -40 -163 -44q-105 -5 -164 59
q-22 24 -29.5 59.5t-2 71.5t19.5 72q22 55 59.5 98t80.5 54q18 5 58 1q34 -4 54 -10q97 -29 132 -111q29 -68 14 -172q-47 -310 -335 -420q-7 -2 -13.5 1t-9 10t0.5 13.5t10 9.5q230 87 294 312z" />
    <glyph glyph-name="colon" unicode=":" horiz-adv-x="211" 
d="M153 449q0 -7 -5.5 -12.5t-12.5 -5.5t-12.5 5.5t-5.5 12.5t5.5 12.5t12.5 5.5t12.5 -5.5t5.5 -12.5zM147 54q0 -7 -5.5 -12.5t-12.5 -5.5t-12.5 5.5t-5.5 12.5t5.5 12.5t12.5 5.5t12.5 -5.5t5.5 -12.5z" />
    <glyph glyph-name="semicolon" unicode=";" horiz-adv-x="216" 
d="M157 72l-31 -77q-18 -47 -34 -78q-4 -7 -11 -9t-13.5 1.5t-8.5 10.5t1 13q15 28 33 75l30 78q3 7 10 9.5t14 0t9.5 -9.5t0.5 -14zM143 460q0 -7 -5.5 -12.5t-12.5 -5.5t-12.5 5.5t-5.5 12.5t5.5 12.5t12.5 5.5t12.5 -5.5t5.5 -12.5z" />
    <glyph glyph-name="less" unicode="&#x3c;" horiz-adv-x="591" 
d="M526 480q-3 -2 -28 -22l-30 -22q-4 -4 -28 -21l-30 -23l-29 -20q-21 -15 -32 -22l-30 -18q-19 -12 -33 -20l-31 -16q-17 -8 -34 -15q-22 -10 -92 -35l-36 -14q11 -7 30 -16l37 -16q4 -1 9.5 -3.5t8.5 -3.5t4 -2l153 -72q90 -44 152 -67q7 -3 10 -9.5t0.5 -13.5t-9 -10
t-13.5 -1q-62 24 -156 69l-151 72q-2 0 -4 1l-8 3q-5 2 -9 4q-23 9 -39 17q-24 11 -38 21q-23 17 -23 36q0 6 5 11l3 3q1 1 3 2t5 2q4 2 13 5l41 15q68 25 90 34q47 21 100 54t86 57l92 69q13 10 19 15t13.5 4t12 -7t3.5 -13.5t-7 -11.5z" />
    <glyph glyph-name="equal" unicode="=" horiz-adv-x="583" 
d="M42 393q70 2 234 -2q153 -4 230 1q7 0 12.5 -5t6 -12t-4.5 -12.5t-12 -6.5q-84 -5 -233 -1q-172 5 -231 2q-8 0 -13.5 5t-5.5 12.5t5 13t12 5.5zM37 136q52 -7 116.5 -9.5t100 -2.5t123.5 2t107 3q7 0 12.5 -5t5.5 -12.5t-5 -13t-13 -5.5q-17 0 -106 -2.5t-124.5 -2.5
t-101.5 3t-119 9q-8 1 -12.5 7t-3.5 13.5t7 12t13 3.5z" />
    <glyph glyph-name="greater" unicode="&#x3e;" 
d="M27 491q58 -24 183 -92q113 -61 181 -88l51 -20q2 -1 5.5 -2t9.5 -1.5t11 -1.5q33 -5 34 -30q0 -11 -8 -21q-5 -6 -13 -13q-13 -10 -35 -22q-34 -19 -58 -29q-27 -10 -90 -29q-62 -19 -87 -29q-29 -13 -101 -49q-64 -34 -105 -49q-7 -2 -13.5 1t-9 10t0.5 13.5t10 9.5
q38 14 101 46q82 41 103 50q31 14 91 31q61 18 88 29q21 8 53 26q19 11 30 19l1 1q-25 4 -32 6l-49 20q-72 30 -186 91q-122 66 -180 91q-7 2 -9.5 9t0 14t9.5 9.5t14 -0.5z" />
    <glyph glyph-name="question" unicode="?" horiz-adv-x="548" 
d="M85 616l43 36q12 10 40.5 27t54.5 24q51 15 101 10q51 -5 90 -30q41 -26 61 -71t13 -104q-10 -81 -89 -172q-11 -13 -39.5 -44t-46 -52.5t-31.5 -43.5q-3 -6 -10.5 -8t-13.5 1.5t-8 11t2 13.5q14 24 33 47.5t49 55.5l38 42q72 83 80 153q12 97 -57 141q-67 43 -162 16
q-22 -6 -46.5 -20.5t-36.5 -24.5l-43 -36q-5 -4 -12.5 -3.5t-12 6t-4 13t6.5 12.5zM278 30q0 -7 -5.5 -12.5t-12.5 -5.5t-12.5 5.5t-5.5 12.5t5.5 12.5t12.5 5.5t12.5 -5.5t5.5 -12.5z" />
    <glyph glyph-name="at" unicode="@" horiz-adv-x="712" 
d="M377 509q-43 -6 -74.5 -19.5t-59.5 -41.5q-23 -22 -40 -61.5t-19 -76.5q-1 -39 15 -61q18 -24 60 -26q65 -3 105 92q13 28 25 71q6 24 7 25q1 6 3 9q1 3 3 6q4 6 12 8q11 1 18 -7q3 -4 4 -10q1 -4 1 -10q-1 -5 -3 -25q-4 -43 -1 -70q0 -6 0.5 -14.5t1 -12.5t2 -9t3.5 -9
q24 -39 71 -23q22 8 42 24t32 34q30 45 33 106q2 60 -20 115q-23 58 -64.5 101t-92.5 58q-56 17 -155 -7q-64 -16 -90 -38q-49 -42 -84.5 -121.5t-46.5 -169.5q-11 -93 10 -170t76 -117q63 -45 173 -33q80 10 183 50q6 2 13 -1t9.5 -9.5t-0.5 -13.5t-10 -10
q-107 -41 -191 -51q-124 -14 -197 40q-66 47 -89 133q-24 87 -12 187q11 94 49.5 179.5t92.5 132.5q33 29 106 46q108 27 173 7q61 -18 108 -67t72 -113q25 -60 22 -130t-38 -124q-15 -22 -40 -42t-52 -29q-28 -13 -60.5 -4t-52.5 42q-10 16 -12 53l-1 -1
q-51 -118 -140 -114q-58 3 -86 41q-25 32 -22 84q2 43 21.5 88.5t46.5 73.5q33 32 70 48t86 23q7 1 13 -3.5t7 -12t-3.5 -13.5t-12.5 -7z" />
    <glyph glyph-name="A" unicode="A" horiz-adv-x="658" 
d="M166 283q35 13 263 105q-30 77 -58 140l-39 85l-15 34q-1 -4 -2 -7q-18 -50 -46 -111q-30 -66 -103 -246zM147 238q-61 -148 -110 -241q-4 -7 -11 -9t-13.5 1.5t-8.5 10.5t1 13q46 87 101 218q-6 3 -8 9q-2 7 1 13.5t10 9.5l11 4l4 8q86 210 113 268q26 58 44 109
q1 2 1.5 5.5t0.5 9.5t1 12q1 13 5 20q8 15 25 15q9 0 14 -7q1 -1 1 -2q1 0 1 -1v-1l1 -1l2 -5l8 -17l24 -52l38 -86q33 -76 59 -140l7 3q7 2 14 -1t9.5 -9.5t-0.5 -13.5t-9 -10l-8 -3l57 -152q42 -113 67 -173q2 -7 -1 -14t-9.5 -9.5t-13.5 0.5t-10 9l-66 173l-57 153
q-243 -98 -295 -117z" />
    <glyph glyph-name="B" unicode="B" horiz-adv-x="605" 
d="M82 659q-1 -144 -7 -345q2 1 5 2q35 4 96 22q61 17 119 41q68 28 109 57q44 31 50 59q14 69 -73 118q-72 41 -158 48q-46 4 -141 -2zM396 388q2 0 5 -1q54 -18 91.5 -60t49.5 -91.5t-4 -102.5t-60 -92q-63 -55 -205 -54q-110 2 -210 30q-2 1 -5 2q-4 -4 -11 -5
q-7 0 -12.5 5t-6.5 12q-3 55 2 139q9 121 9 137q7 210 7 359q-3 4 -3 9q0 7 4 13q5 11 17 11q6 0 11 -4q104 6 150 2q95 -8 174 -53q109 -62 89 -157q-8 -41 -64 -80q-13 -10 -28 -19zM337 358l-29 -12q-59 -25 -122.5 -43t-101.5 -23q-5 0 -10 2q-1 -17 -2.5 -36t-3.5 -42
q0 -12 -2 -36q-5 -70 -3 -117q5 2 10 0q95 -27 200 -28q129 -1 181 44q49 43 56.5 103t-26 111.5t-95.5 71.5q-7 2 -14 3t-18.5 1t-19.5 1z" />
    <glyph glyph-name="C" unicode="C" horiz-adv-x="618" 
d="M530 597q-161 144 -296 45q-58 -43 -101 -123.5t-65 -176.5q0 -3 -2 -9q-22 -100 -14 -144q19 -92 125 -119q49 -12 99 -9.5t93 17.5q18 6 38.5 17t30.5 17l36 26q27 20 33 24t13 2.5t11.5 -7.5t3 -13t-7.5 -12q-3 -2 -31 -22.5t-39 -27.5t-33.5 -19t-42.5 -19
q-49 -16 -103.5 -19t-109.5 10q-58 15 -98.5 51.5t-51.5 96.5q-2 8 -3 16.5t-1 16.5t0.5 18.5t1 17t2 18t2.5 16.5l4 18q2 12 3 15.5t3.5 16t3.5 14.5q22 101 68.5 187t110.5 133q48 36 100.5 45t115 -13t125.5 -79q5 -5 5.5 -12t-4.5 -12.5t-12 -6t-13 4.5z" />
    <glyph glyph-name="D" unicode="D" horiz-adv-x="645" 
d="M76 664q17 -147 10 -400q-1 -20 -2.5 -56t-2.5 -57t0 -51.5t5 -57.5v-2q1 -1 2 -1q72 -38 85 -42q27 -9 94 -7q97 2 163 47t97 119q30 71 23 158q-8 87 -54 166q-31 52 -54 68q-22 16 -53 28.5t-55 19t-64 16t-60 15.5q-23 6 -76 25q-39 13 -61 19q2 -3 3 -7zM69 709
q28 -7 77 -24q51 -18 74 -24l57 -14q41 -10 66.5 -17t60 -21t58.5 -31q30 -22 64 -80q50 -85 58.5 -180.5t-24.5 -174.5q-35 -84 -110.5 -135.5t-182.5 -53.5q-71 -1 -104 9q-16 5 -91 44q-10 5 -10 16q-10 4 -12 15q-3 28 -4 60t-0.5 54t2.5 58.5t2 55.5q7 250 -10 394
q-1 15 13 19q-8 7 -5 17q2 7 8 11t13 2z" />
    <glyph glyph-name="E" unicode="E" horiz-adv-x="568" 
d="M80 52q4 -1 11 -1q13 -1 34 0q12 0 24 0.5t20.5 1t9.5 0.5q46 1 157 -3q104 -4 155 0q7 0 12.5 -5t6 -12t-4.5 -12.5t-12 -6.5q-57 -3 -158 0q-124 4 -156 3l-9 -1q-8 0 -20.5 -0.5t-23.5 -0.5h-36q-9 1 -15 1q-10 2 -15 6q-17 13 -23 41q-5 20 -4 49q0 19 3 48t3 35
q1 25 5 77q5 49 5 74q1 56 -3 156q-5 125 -5 158q0 7 5.5 12.5t12.5 5.5t12.5 -5.5t5.5 -12.5v-2v-2q80 28 200.5 33.5t196.5 -11.5q8 -1 12 -7t2.5 -13.5t-7.5 -11.5t-13 -2q-77 16 -197 9.5t-194 -35.5q1 -31 5 -114q3 -69 3 -111q28 4 60.5 6.5t57 4t63 2t56.5 0.5h63h57
q7 0 12.5 -5.5t5.5 -12.5t-5.5 -12.5t-12.5 -5.5h-58h-63q-18 0 -57 -0.5t-63 -2t-56 -4t-60 -6.5v-11q-1 -27 -5 -78q-5 -50 -5 -75q0 -7 -3 -36q-3 -30 -4 -45q0 -26 3 -41q3 -13 9 -19z" />
    <glyph glyph-name="F" unicode="F" horiz-adv-x="582" 
d="M92 347q7 -244 10 -316q0 -8 -5 -13.5t-12.5 -5.5t-13 5t-5.5 12l-8 297q-7 230 -14 355q0 7 5 12.5t12 6t12.5 -4.5t6.5 -12v-7q195 55 429 19q7 -2 11.5 -7.5t3 -13t-7 -12t-13.5 -3.5q-231 36 -421 -19q5 -104 9 -258q64 9 94 12.5t84.5 7t99.5 -0.5t89 -16
q7 -2 10.5 -8t1.5 -13.5t-8 -11t-14 -1.5q-40 11 -82.5 15t-96.5 0t-82.5 -7t-94.5 -12z" />
    <glyph glyph-name="G" unicode="G" horiz-adv-x="651" 
d="M562 620q-43 44 -86 62t-106 18q-169 0 -260 -127q-81 -113 -86 -294q-1 -45 0 -73.5t11 -65t30 -59.5q73 -87 209 -35q57 22 108 63.5t78 84.5q15 25 45 96q15 37 21 60q3 11 4 18q-3 0 -7 -1q-3 0 -14 -2.5t-18 -3.5q-49 -3 -105 -9l-123 -12q-68 -7 -104 -11
q-8 0 -13.5 4.5t-6 12t4 13t11.5 6.5q37 3 105 10l124 13q56 5 105 9q4 0 12 2q12 3 17 3q27 4 41 -11q8 -9 7 -26q-1 -10 -6 -25q-7 -25 -22 -63q-31 -74 -48 -101q-30 -49 -85.5 -94t-118.5 -69q-45 -17 -87.5 -21t-86 12t-75.5 53q-18 23 -29.5 52.5t-15 57.5t-5 58.5
t0.5 53.5q5 193 93 315q102 142 289 142q70 0 119.5 -21t98.5 -71q5 -5 5 -12.5t-5.5 -12.5t-13 -5t-12.5 6z" />
    <glyph glyph-name="H" unicode="H" horiz-adv-x="674" 
d="M595 699q9 -46 13 -101t3.5 -102t-0.5 -102q1 -2 2 -5q1 -6 -2 -12q-1 -29 0 -52q0 -15 2.5 -118t2.5 -157q0 -7 -5.5 -12.5t-12.5 -5.5t-12.5 5.5t-5.5 12.5q0 54 -2.5 156.5t-2.5 118.5v40q-92 -16 -261 -39l-226 -32q1 -160 5 -272q0 -8 -5 -13.5t-12.5 -5.5t-13 5
t-5.5 12q-5 128 -5.5 361t-2.5 310q0 7 5 12.5t12.5 5.5t13 -5t5.5 -13q1 -59 2 -361q52 8 223.5 31.5t264.5 39.5q0 53 0.5 98.5t-3 97t-11.5 96.5q-2 7 2 13t11.5 7.5t13.5 -2.5t7 -12z" />
    <glyph glyph-name="I" unicode="I" horiz-adv-x="188" 
d="M130 703q-36 -329 0 -696q0 -8 -4.5 -13.5t-12 -6t-13 4t-6.5 11.5q-35 371 0 704q1 7 7 11.5t13 4t11.5 -6.5t4.5 -13z" />
    <glyph glyph-name="J" unicode="J" horiz-adv-x="449" 
d="M374 698q10 -79 14 -179q5 -102 0 -215q-5 -111 -23 -177q-20 -74 -63 -111q-42 -37 -96 -34q-51 3 -98 38q-48 35 -80 92q-4 7 -2 14t8.5 10.5t13.5 1.5t10 -8q29 -51 69.5 -80.5t80.5 -31.5q39 -3 72 25.5t51 93.5q17 61 22 170t0 209.5t-15 177.5q-1 7 3.5 13t12 7
t13.5 -3.5t7 -12.5z" />
    <glyph glyph-name="K" unicode="K" horiz-adv-x="596" 
d="M119 361l-12 -9q7 -176 7 -319q0 -7 -5.5 -12.5t-12.5 -5.5t-12.5 5.5t-5.5 12.5q0 220 -23 656q0 7 5 12.5t12 6t12.5 -4.5t6.5 -12q10 -195 14 -293l4 4q5 4 11 4q156 118 347 284q6 5 13.5 4.5t12 -6t4 -13t-5.5 -11.5q-188 -164 -344 -282l66 -80q24 -29 64 -70.5
t73 -65.5t87 -56q89 -53 92 -55q7 -4 8.5 -11t-2.5 -13.5t-11 -8t-13 2.5q-3 2 -92 54q-56 33 -91 59q-34 25 -76 69t-66 73z" />
    <glyph glyph-name="L" unicode="L" horiz-adv-x="549" 
d="M96 693q0 -179 23 -509q0 -2 2 -84q0 -34 1 -51v-12h5q14 -1 38 0q42 2 114 11q147 19 189 30q7 2 13.5 -1.5t8.5 -10.5t-1.5 -13.5t-10.5 -8.5q-47 -13 -194 -32q-72 -9 -117 -11q-27 -1 -43 0q-9 1 -15 2q-11 3 -16 9l-5 9v3q0 2 -1 6q0 6 -1 18q0 10 -1 51
q-2 82 -2 83q-23 331 -23 511q0 7 5.5 12.5t12.5 5.5t12.5 -5.5t5.5 -12.5z" />
    <glyph glyph-name="M" unicode="M" horiz-adv-x="851" 
d="M15 19q21 54 41.5 122.5t31.5 109t34 131.5l28 116l20 85l14 53q4 12 6 19q1 4 2.5 6.5t2.5 4.5q7 7 16 7q8 -1 13 -7q2 -2 3.5 -4.5t2.5 -7.5q2 -6 5 -18q5 -18 12 -52l7 -36q4 -20 6 -32.5t3 -14.5q6 -22 43 -186q26 -115 50 -179q5 -15 18 -61l5 12q14 34 19 49
q21 61 57 186q38 133 56 188l28 82l18 50q3 11 6 16q1 4 2 6q1 1 1 2q1 2 2 3q4 7 14 7q9 0 16 -8q2 -3 5 -8q4 -6 8 -18q7 -18 16 -51q6 -19 22 -83q4 -13 21 -78l22 -86l20 -75q15 -54 25 -84l25 -73q15 -43 30 -80q2 -7 -0.5 -14t-9.5 -9.5t-14 0t-10 9.5q-15 38 -30 82
l-25 74q-10 31 -25 85.5t-20 76.5l-23 86q-17 64 -20 78q-15 59 -22 82l-9 30l-11 -32l-28 -82q-9 -27 -55 -186q-35 -121 -58 -188q-6 -16 -21 -51q-9 -22 -15 -34q-4 -8 -7 -13q-2 -3 -5 -5q-6 -7 -14 -7q-9 0 -15 7q-2 3 -3 6q-2 4 -4 10q-3 8 -8 26q-13 48 -18 61
q-24 64 -51 184q-37 163 -42 183q-1 3 -3 15l-7 34l-7 37l-3 13l-4 -16l-21 -84l-28 -116l-34 -133q-10 -41 -31 -110.5t-42 -123.5q-3 -7 -9.5 -10t-13.5 -0.5t-10 9t-1 13.5z" />
    <glyph glyph-name="N" unicode="N" horiz-adv-x="697" 
d="M58 9q-10 184 -7 274q1 20 6 81q3 49 3 79q0 31 5 84q6 64 7 82q0 1 1 55q1 13 2 20q1 6 3 10q5 11 16 12q20 2 42 -20q14 -14 31 -40q11 -16 26 -43q14 -23 17 -27l68 -92l74 -100l63 -90q37 -55 65 -102q6 -9 16 -26l23 -42l22 -41q19 -35 30 -53l1 -1q4 15 7 39
q0 5 4 79q20 370 20 544q0 7 5.5 12.5t12.5 5.5t12.5 -5.5t5.5 -12.5q0 -175 -20 -546q-4 -75 -5 -80q-3 -31 -9 -49q-3 -12 -8 -20q-8 -12 -20 -14q-7 -2 -14 2q-2 1 -4.5 3.5t-5.5 6.5q-5 6 -12 18q-11 18 -31 54q-9 15 -22 40l-24 42l-14 26q-28 47 -65 101l-63 89
l-73 100l-67 90q-5 6 -19 31q-16 27 -25 41q-15 23 -27 35l-2 2q-1 -53 -1 -56q-1 -19 -7 -83q-5 -53 -5 -81q0 -31 -4 -82q-4 -60 -5 -80q-4 -88 7 -270q0 -7 -5 -12.5t-12 -6t-12.5 4.5t-6.5 12z" />
    <glyph glyph-name="O" unicode="O" horiz-adv-x="738" 
d="M355 717q6 9 17 8q194 -18 267 -122q72 -105 17 -293q-13 -46 -34 -90q-20 -44 -50.5 -88.5t-66.5 -78.5t-83.5 -57t-99.5 -26q-75 -4 -155 42q-103 59 -123 208q-9 62 0 127q9 64 32 118q39 89 114 160q76 71 165 92zM376 684q-83 -14 -157 -80.5t-111 -152.5
q-20 -49 -28 -109q-9 -60 -1 -117q18 -132 106 -183q70 -40 135 -36q55 3 106 32q50 30 87.5 76t64.5 98q28 51 44 108q50 171 -13 262q-60 87 -225 106q-4 -3 -8 -4z" />
    <glyph glyph-name="P" unicode="P" horiz-adv-x="590" 
d="M97 306q45 -3 105 -2.5t101 10.5q51 13 95.5 38t69.5 57q58 74 -6 163q-10 12 -35 36.5t-36 31.5q-61 36 -135 46t-171 5q0 -20 9 -209q5 -105 3 -176zM59 726q61 2 117 2.5t120 -14.5q63 -14 113 -44q15 -9 43 -36q27 -26 38 -42q28 -38 36.5 -75.5t0.5 -69t-31 -60.5
q-30 -38 -79.5 -65.5t-105.5 -41.5q-44 -12 -108.5 -12.5t-106.5 3.5v-3l-11 -132q-7 -82 -8 -131q0 -8 -5.5 -13t-13 -5t-12.5 5.5t-5 12.5q1 51 9 134q8 100 10 131q5 83 -1 211q-9 187 -10 213q-6 5 -7 13q0 7 5 12.5t12 6.5z" />
    <glyph glyph-name="Q" unicode="Q" horiz-adv-x="747" 
d="M459 11q-29 -8 -61 -14q-68 -11 -108 -5q-57 9 -101 33.5t-71.5 60.5t-45.5 78.5t-24.5 91t-6 95.5t7.5 95q21 136 105 198q46 34 99 48.5t121 21.5q3 0 6 -1q7 6 15 5q145 -26 219.5 -123t74.5 -245q0 -149 -71 -237q-47 -58 -124 -89q51 -67 109 -130q5 -5 4.5 -12.5
t-5.5 -12.5t-12.5 -4.5t-12.5 5.5q-63 68 -118 141zM378 678q-65 -6 -113.5 -19.5t-88.5 -42.5q-73 -54 -91 -176q-7 -55 -8.5 -109t12.5 -105t37.5 -91.5t67 -69t102.5 -37.5q34 -6 96 5q23 3 44 9q-47 64 -92 137q-4 6 -2.5 13t8 11t13.5 2.5t11 -8.5q48 -77 98 -144
q75 28 118 82q63 79 63 215t-66.5 222.5t-197.5 109.5l-1 1q-5 -4 -10 -5z" />
    <glyph glyph-name="R" unicode="R" horiz-adv-x="686" 
d="M149 311q29 1 57 -1q93 15 153 32q133 38 177 107q25 41 12 96q-28 112 -202 146q-116 22 -258 5q1 -3 1 -5q1 -53 7.5 -165t8.5 -172q1 -51 -4 -162q-5 -114 -5 -160q0 -7 -5.5 -12.5t-12.5 -5.5t-12.5 5.5t-5.5 12.5q0 40 6 162q5 102 3 160q-1 59 -7.5 171t-8.5 164v4
q-12 2 -14 14q-1 8 3.5 13.5t11.5 7.5q162 24 299 -2q196 -38 229 -173q17 -70 -16 -122q-52 -82 -197 -123q-30 -9 -64 -16q92 -28 173.5 -90.5t145.5 -146.5q5 -6 4 -13.5t-7 -12t-13.5 -3.5t-11.5 7q-77 101 -177 166.5t-211 74.5l-66 -10q-7 -1 -13 3.5t-8 11.5
q-2 15 12 20q4 11 16 12z" />
    <glyph glyph-name="S" unicode="S" horiz-adv-x="637" 
d="M518 608q-65 49 -134 70.5t-141 7.5t-126 -71q-15 -16 -30 -40q-17 -26 -18 -41q-6 -43 37 -64q29 -14 94 -22q15 -2 61.5 -6.5t82.5 -10t67 -15.5q128 -37 159 -145q12 -48 5 -87.5t-32.5 -71.5t-60 -54.5t-77.5 -36.5q-80 -30 -176.5 -21t-154.5 57q-10 8 -17.5 16.5
t-15 20t-11.5 18.5l-10 20q-8 14 -10 18q-3 6 -1 13t8.5 10.5t13.5 1.5t11 -9q2 -5 10 -18l10 -20q3 -5 9 -14.5t12 -16t13 -12.5q50 -41 135.5 -49t162.5 18q81 28 121.5 81.5t20.5 125.5q-26 89 -135 121q-29 9 -63 14t-79.5 9.5t-62.5 6.5q-72 10 -106 27q-65 32 -57 99
q3 23 24 56q17 27 34 45q47 50 106 72t118.5 16t116.5 -29t108 -62q6 -4 7 -11.5t-3.5 -13.5t-12 -7t-13.5 4z" />
    <glyph glyph-name="T" unicode="T" horiz-adv-x="632" 
d="M17 687q66 2 194 -7q129 -9 190 -8q23 0 47 3.5t56 8.5l50 9q7 1 13 -3.5t7 -12t-3.5 -13.5t-12.5 -7q-15 -2 -47 -7.5t-59 -9t-51 -4.5q-48 -1 -112 3q1 -24 3 -77l4 -84q2 -31 2.5 -75t0.5 -81q-1 -36 -4.5 -107t-4 -105.5t3.5 -103.5q0 -8 -4.5 -13.5t-12 -6t-13 4
t-6.5 11.5q-4 72 -3.5 107.5t4.5 107.5t4 105q1 38 0 82t-2.5 75.5t-3.5 84.5l-3 77l-46 4q-123 9 -189 6q-8 0 -13.5 5t-5.5 12.5t5 13t12 5.5z" />
    <glyph glyph-name="U" unicode="U" horiz-adv-x="658" 
d="M69 656q1 -30 -0.5 -128t0.5 -154q2 -90 11 -148q10 -70 31 -100q29 -43 80 -71.5t109 -35.5q59 -6 111.5 12.5t86.5 62.5q58 76 65 266q5 130 -14 292q-1 7 4 13t12 7t13 -4t7 -12q19 -165 14 -298q-8 -201 -73 -286q-40 -52 -101.5 -74t-128.5 -14q-65 7 -123 39.5
t-92 82.5q-25 37 -36 114q-10 61 -12 153q-1 56 0 153.5t0 127.5q0 8 5 13.5t12.5 5.5t13 -5t5.5 -12z" />
    <glyph glyph-name="V" unicode="V" horiz-adv-x="571" 
d="M52 712l71 -238q61 -203 86 -312q5 -19 25 -82q7 -22 13 -38q2 8 4 13l26 46q15 27 23 43q16 35 19 52q6 32 14 57q6 18 39 107q25 67 37 105l19 66q15 52 26 85t25 66q3 7 9.5 9.5t13.5 -0.5t9.5 -9.5t-0.5 -13.5q-13 -31 -23.5 -63t-25 -83t-19.5 -67q-9 -32 -38 -108
q-28 -75 -38 -106q-7 -22 -13 -51q-4 -21 -22 -60q-8 -18 -25 -47q-18 -32 -24 -44q-1 -2 -2 -5.5t-2 -9.5l-2 -11q-3 -12 -9 -18q-10 -14 -26 -10q-6 1 -10 5l-4 4q-1 3 -3 7q-3 6 -8 18q-7 19 -17 50q-21 65 -25 85q-25 109 -86 311l-71 237q-2 7 1.5 13.5t10.5 8.5
t13.5 -1.5t8.5 -10.5z" />
    <glyph glyph-name="W" unicode="W" horiz-adv-x="924" 
d="M52 701q45 -117 71 -237q6 -27 21 -122q12 -75 23 -118q5 -18 26 -103l7 -30q6 12 13 29q11 25 30 77q57 153 125 387l18 64l8 28l3 9q0 2 0.5 3.5t1.5 2.5t1 2q4 6 12 8q14 2 26 -9q7 -7 14 -19q11 -18 21 -50q14 -43 22 -88q43 -223 103 -371v-2q1 -2 2 -4.5t2 -6t3 -8
t3.5 -9.5t3.5 -10l4 -11l10 -23q7 15 17 42q6 15 13 33l11 32q5 14 5 16q20 53 57 195q34 129 61 198l20 48q7 16 10 20q1 2 3 3l8 26q2 7 9 10t14 1t10 -9t1 -14l-20 -59l-2 -6l-1 -4v-1q-1 -1 -2 -3t-3 -3q-2 -3 -6 -4l-7 -19q-25 -60 -60 -193q-37 -139 -58 -198
q-1 -2 -6 -16l-11 -32q-6 -18 -12 -34q-12 -31 -21 -49q-5 -11 -10 -17q-3 -5 -6 -8q-7 -6 -15 -6t-14 6q-3 3 -5 6q-3 5 -7 14q-7 13 -16 35l-4 10q-2 6 -3.5 11t-3.5 9.5t-3 8t-2 6t-2 3.5l-1 2q-60 152 -103 379q-9 42 -22 83q-8 24 -15 39l-4 -13l-18 -64
q-70 -241 -125 -389q-19 -50 -31 -78q-12 -31 -22 -48q-6 -11 -10 -17q-4 -4 -8 -7q-8 -5 -17 -3q-6 1 -9 5q-2 2 -2 3q-1 1 -2 3q0 1 -1 2q0 2 -1 5q-1 5 -4 15l-12 48q-21 84 -25 101q-11 44 -24 123q-14 88 -20 119q-25 116 -71 231q-2 7 1 14t9.5 9.5t13.5 -0.5t10 -9z
" />
    <glyph glyph-name="X" unicode="X" horiz-adv-x="621" 
d="M289 360q-64 108 -122.5 186.5t-135.5 143.5q-5 5 -5.5 12.5t4 13t12 6t13.5 -3.5q77 -67 136.5 -145.5t121.5 -182.5l210 276q4 6 11.5 7t13.5 -3.5t7 -12t-4 -13.5l-219 -287q5 -8 22 -38l24 -40l22 -37q16 -26 24.5 -38.5t23.5 -36.5t26 -39l26 -35q14 -20 28 -37
l30 -34q5 -6 4.5 -13t-6 -12t-12.5 -4.5t-12 5.5q-43 48 -88 112.5t-66 99.5l-69 117l-270 -333q-5 -6 -12.5 -6.5t-13 4t-6 12t3.5 12.5z" />
    <glyph glyph-name="Y" unicode="Y" horiz-adv-x="608" 
d="M546 688q-22 -27 -39 -55q-18 -29 -39.5 -69.5t-34.5 -61.5l-69 -120l-84 -143q-29 -49 -77 -120.5t-89 -120.5q-5 -5 -12.5 -5.5t-13 4t-6 12t3.5 13.5q77 89 178 260l-1 1q-23 34 -51 86l-48 87q-21 39 -67 114l-68 112q-3 7 -1 14t8.5 10.5t13.5 1.5t11 -8
q21 -38 67 -113l68 -113l47 -88q23 -42 41 -70l119 204l33 60q22 41 41 72t41 58q5 6 12.5 6.5t13 -4t6 -12t-3.5 -12.5z" />
    <glyph glyph-name="Z" unicode="Z" horiz-adv-x="597" 
d="M15 680q116 22 232 28q40 2 115 2t105 1q3 0 6 0.5t8.5 2t11.5 3.5q30 6 41 -15q4 -7 1 -16q-1 -4 -4 -9l-11 -16q-12 -16 -34 -42l-58 -65l-164 -174q-96 -102 -155 -181q-20 -26 -45 -67q-15 -25 -22 -41q-4 -10 -6 -14v-2q5 -11 28 -13q4 0 50 2q271 12 409 -3
q7 -1 12 -7t4 -13t-7 -12t-13 -4q-123 14 -403 3q-49 -2 -55 -2q-48 5 -60 39q-3 9 1 22q2 8 7 19q8 17 25 44q27 45 47 71q60 79 157 183l164 174l57 64l30 37q-14 -4 -20 -4q-32 -1 -106 -1q-71 0 -114 -2q-117 -5 -228 -26q-7 -2 -13 2t-7.5 11.5t2.5 13.5t12 7z" />
    <glyph glyph-name="bracketleft" unicode="[" horiz-adv-x="286" 
d="M211 720l-55 -2q-27 -1 -37 -1q-7 -1 -11 -1q-6 -7 -11 -26q-6 -22 -8 -59q-1 -18 -1 -112v-323q1 -115 3 -194q1 -42 3 -65q1 -12 2 -19l1 -4q5 -9 10.5 -14.5t15 -8.5t15 -4t21 -2.5t22.5 -1.5q7 -1 12 -7t4 -13t-7 -12t-13 -4q-3 1 -20 2t-25.5 3t-22.5 6.5t-24.5 14
t-18.5 23.5q-3 5 -5 17q-1 8 -2 21q-2 26 -4 67q-2 72 -3 194v324q0 95 1 114q3 40 10 66q9 37 28 49l7 3h3h4q4 1 13 1q13 1 37 2q1 0 54 2q8 0 13.5 -5t5.5 -12.5t-5 -13t-12 -5.5z" />
    <glyph glyph-name="backslash" unicode="\" horiz-adv-x="335" 
d="M-17 713q1 -2 48 -133q30 -83 53 -129q3 -6 12 -20q11 -15 15 -25q21 -46 49 -122t54.5 -137.5t59.5 -112.5q4 -7 2.5 -14t-8 -11t-13.5 -2.5t-11 7.5q-33 53 -61 117.5t-57 141.5t-47 119q-3 7 -12 19q-11 16 -15 24q-25 51 -55 133q-47 130 -48 133q-2 6 1 13t9.5 9.5
t13.5 -0.5t10 -10z" />
    <glyph glyph-name="bracketright" unicode="]" horiz-adv-x="244" 
d="M6 737q11 0 79 3q31 2 49 2q11 1 16 1h5h2h1h2q1 -1 2 -1q4 -1 7 -4q6 -6 9 -19q2 -8 3 -20q2 -20 3 -54q1 -22 1 -54v-36q2 -90 -7 -249q-10 -177 -10 -246v-32v-16v-8q0 -7 0.5 -9t1.5 -15t2 -30q0 -3 0.5 -6t1.5 -8q2 -5 3 -10q5 -24 -6 -38q-5 -7 -15 -10
q-7 -2 -16 -3q-13 -2 -35 -3h-21h-22l-9 1q-8 0 -13 5.5t-5 13t5.5 12.5t12.5 5q1 0 10 -0.5t20 -0.5h22q19 0 30 2q4 1 8 1v-1v1h1q0 3 -2 8q-6 28 -6 29q-1 17 -2 30.5t-1.5 15.5t-0.5 8v9v17v32q0 74 10 248q10 168 7 247v35v54q-1 32 -3 51q-1 7 -2 12h-9q-18 -1 -48 -2
q-68 -3 -79 -4q-7 0 -12.5 5t-6 12t4.5 12.5t12 6.5zM143 -89z" />
    <glyph glyph-name="asciicircum" unicode="^" horiz-adv-x="449" 
d="M64 444l131 202q2 2 3 6l3 10q2 6 4 11q11 31 36 30q24 -2 34 -33q2 -6 5 -16q2 -10 4 -14q80 -160 105 -204q3 -7 1 -14t-8.5 -10.5t-13.5 -1.5t-11 8q-25 46 -105 206q-2 5 -4.5 12t-4 14.5t-2.5 8.5q-1 3 -1 5q-1 -1 -2 -3q-11 -32 -13 -35l-131 -200q-4 -7 -11 -8.5
t-13.5 2.5t-8 11t2.5 13z" />
    <glyph glyph-name="underscore" unicode="_" horiz-adv-x="551" 
d="M13 -60q37 2 117 1q74 -1 115 2q25 2 113 14q72 10 117 10q7 0 12.5 -5.5t5.5 -12.5t-5.5 -12.5t-12.5 -5.5q-41 0 -112 -10q-85 -12 -116 -14q-41 -2 -117 -2q-79 1 -115 -1q-7 0 -12.5 5t-6 12t4.5 12.5t12 6.5z" />
    <glyph glyph-name="grave" unicode="`" horiz-adv-x="232" 
d="M45 720q92 -94 123 -122q5 -5 5.5 -12t-4.5 -12.5t-12 -6t-13 4.5q-31 28 -125 124q-5 5 -5 12.5t5.5 12.5t13 5t12.5 -6z" />
    <glyph glyph-name="a" unicode="a" horiz-adv-x="481" 
d="M358 90q-33 118 -48 322q-5 1 -23 7t-24 7l-21 6q-15 4 -23 4.5t-20.5 1t-22.5 -1.5t-20 -7q-41 -16 -69 -67t-35 -118t10 -122t54 -79q49 -32 118 -12q44 12 120 57zM344 441q9 -138 25 -238.5t52 -188.5q3 -7 0.5 -14t-9.5 -9.5t-14 0t-9 9.5q-11 27 -21 55
q-76 -45 -124 -59q-84 -24 -148 17q-48 31 -67.5 96t-12 138.5t40 133.5t85.5 82q21 8 42.5 10t47 -3t38.5 -8.5t41 -12.5q4 8 14 9q7 0 12.5 -4.5t6.5 -12.5z" />
    <glyph glyph-name="b" unicode="b" horiz-adv-x="541" 
d="M77 71v-58q0 -7 -5.5 -12.5t-12.5 -5.5t-12.5 5.5t-5.5 12.5q0 465 8 698q0 7 5.5 12t13 5t12.5 -5.5t5 -13.5q-6 -159 -7 -359q47 45 96.5 64.5t117.5 19.5q101 0 153 -72q47 -64 35 -153q-5 -42 -24 -79t-50 -66t-77.5 -43t-101.5 -8l-22 4q-11 2 -23 7l-22 7
q-8 3 -22.5 10t-20.5 9.5t-21.5 10.5t-18.5 10zM77 319v-209q11 -5 37 -18l42 -20q14 -7 36 -14q21 -7 39 -9q91 -11 147 39q57 50 67 126q10 74 -29 127q-41 57 -124 57q-62 0 -105.5 -17t-87.5 -60q-10 -10 -22 -2z" />
    <glyph glyph-name="c" unicode="c" horiz-adv-x="446" 
d="M358 329q-33 29 -55.5 45.5t-57 29.5t-62.5 8q-49 -10 -84 -73q-34 -61 -38 -137q-3 -79 28 -125q34 -50 101 -43q22 2 49 14t39 20q8 4 47 30q6 4 13.5 2.5t11.5 -7.5t2.5 -13.5t-7.5 -11.5q-3 -1 -14 -8.5t-15 -9.5l-15 -10q-11 -7 -17 -10l-16 -8q-11 -6 -19 -9
l-17 -7q-10 -3 -19.5 -5t-18.5 -3q-89 -8 -134 59q-38 56 -34 146q3 86 42 154q43 76 107 89q29 6 59 0t59.5 -24t46.5 -31l42 -34q5 -5 5.5 -12.5t-4 -13t-12 -6t-13.5 3.5z" />
    <glyph glyph-name="d" unicode="d" horiz-adv-x="491" 
d="M411 700q-1 -35 0 -75t2.5 -67t4.5 -76q3 -48 4 -70q3 -62 5 -189q2 -128 6 -195q0 -7 -5 -12.5t-12 -6t-12.5 4.5t-6.5 12q-1 23 -2 49q-56 -34 -124 -62q-84 -31 -140.5 -22.5t-90.5 51.5q-30 38 -35.5 96t11.5 111q17 58 53 105t86 68q110 47 233 -47l-2 35
q-1 20 -4 70.5t-4 77t-2 67.5t-1 75q0 8 5.5 13t13 5t12.5 -5.5t5 -12.5zM389 328q-120 104 -220 62q-41 -18 -72.5 -58.5t-46.5 -92.5q-14 -50 -9.5 -97.5t27.5 -77.5q55 -71 189 -17q76 30 136 68q-1 37 -2 108t-2 105z" />
    <glyph glyph-name="e" unicode="e" horiz-adv-x="519" 
d="M90 200q158 90 333 138q-32 74 -127 94q-81 17 -141 -53q-56 -66 -64 -164q-1 -8 -1 -15zM446 318q-2 -11 -12 -14q-182 -50 -343 -144q8 -60 41 -94q55 -57 167 -19q51 17 113 70q6 5 13.5 4.5t12 -6t4 -13t-5.5 -11.5q-68 -59 -125 -78q-134 -44 -205 28
q-60 62 -51 177q9 109 73 184q74 86 176 64q118 -25 156 -125q2 -7 -1 -13.5t-10 -9.5h-3z" />
    <glyph glyph-name="f" unicode="f" horiz-adv-x="344" 
d="M265 665q-27 5 -39.5 6t-31.5 0t-31 -8.5t-22 -22.5q-15 -22 -21 -102q-4 -45 -5 -106q61 8 92 13q7 1 13 -3.5t7.5 -11.5t-3 -13t-11.5 -8q-32 -5 -98 -13q0 -16 1 -32q1 -101 14 -311q0 -7 -5 -12.5t-12 -6t-12.5 4.5t-6.5 12q-12 211 -14 312v28q-49 -6 -84 -13
q-7 -1 -13 3.5t-7.5 11.5t3 13t11.5 8q36 6 90 13q0 65 4 114q7 88 27 119q14 21 32.5 32.5t42 13.5t38.5 1t39 -5q5 -1 8 -1q7 -2 11.5 -7.5t3 -13t-7 -12t-13.5 -3.5z" />
    <glyph glyph-name="g" unicode="g" horiz-adv-x="510" 
d="M406 442q-5 1 -42 3t-49 2t-39 -1t-45.5 -7t-34.5 -15q-29 -17 -54.5 -65t-36.5 -104q-11 -59 1 -101.5t46 -55.5q41 -17 119 18q37 16 120 67q14 9 23 -5q5 120 -8 264zM441 454q18 -186 6 -329q-9 -106 -35 -175q-33 -86 -91 -110q-22 -8 -46 -12t-57.5 -3t-48.5 1.5
t-56 5.5t-42 5q-7 1 -11.5 7t-4 13t6.5 11.5t13 4.5l37 -5q29 -3 42.5 -4.5t39.5 -3t42 -0.5t36 4t35 10q45 17 72 88q24 64 32 166l2 28q-1 -2 -4 -3q-85 -52 -124 -70q-91 -41 -147 -19q-51 21 -65.5 76t-2.5 122q12 61 41.5 115.5t66.5 76.5q20 12 42.5 19t52 8.5
t45.5 1.5t51 -2.5t41 -2.5q9 -1 14 -8q6 -1 11 -5.5t6 -10.5z" />
    <glyph glyph-name="h" unicode="h" horiz-adv-x="510" 
d="M88 697q20 -130 18 -321q14 21 52 59q37 36 72.5 56.5t80.5 19.5q66 -2 97 -55q23 -39 25 -111q1 -40 -6 -122q-6 -71 -3 -92q1 -12 2.5 -21t4.5 -20t5 -16t7 -20t8 -21q2 -7 -1 -13.5t-10 -9t-13.5 0.5t-9.5 10q-2 6 -7.5 21t-7.5 21t-5.5 17.5t-5 22.5t-3.5 24
q-2 25 4 99q7 85 6 118q-2 62 -21 94q-21 36 -68 37q-34 1 -63 -16t-62 -50q-3 -2 -8 -7q-29 -29 -45 -51q-10 -15 -19 -26q-3 -5 -7 -7q-6 -255 -6 -266q0 -7 -5.5 -12.5t-12.5 -5.5t-12.5 5.5t-5.5 12.5q0 58 4.5 200t2 244t-17.5 195q-1 8 3.5 13.5t12 7t13 -3t7.5 -11.5
z" />
    <glyph glyph-name="i" unicode="i" horiz-adv-x="207" 
d="M136 431q-3 -40 -1 -111q1 -78 0 -113q-2 -32 -7.5 -92t-6.5 -76q-1 -8 -6.5 -12.5t-13 -4t-12 6t-4.5 12.5q2 17 7.5 76.5t6.5 91.5q2 33 0 111q-2 74 1 113q1 8 6.5 12.5t13 4t12 -6t4.5 -12.5zM149 633q0 -7 -5.5 -12.5t-12.5 -5.5t-12.5 5.5t-5.5 12.5t5.5 12.5
t12.5 5.5t12.5 -5.5t5.5 -12.5z" />
    <glyph glyph-name="j" unicode="j" horiz-adv-x="196" 
d="M110 429q8 -96 14 -252q1 -25 6 -79t6.5 -83t-1.5 -82q-3 -24 -14 -52q-14 -34 -32 -49q-31 -26 -63 -20q-27 5 -50 31q-29 33 -53 99q-2 7 1 13.5t10 9t13.5 -0.5t9.5 -10q21 -60 45 -87q15 -17 30 -20q16 -3 35 13q10 9 21 34q9 24 11 43q3 51 2 77.5t-7 79.5
q-5 50 -6 81q-6 153 -14 252q0 7 4.5 12.5t12 6t13 -4t6.5 -12.5zM103 607q0 -7 -5.5 -12.5t-12.5 -5.5t-12.5 5.5t-5.5 12.5t5.5 12.5t12.5 5.5t12.5 -5.5t5.5 -12.5z" />
    <glyph glyph-name="k" unicode="k" horiz-adv-x="430" 
d="M200 301q32 -46 88 -136l81 -128q4 -6 2.5 -13.5t-7.5 -11.5t-13.5 -2.5t-11.5 7.5l-81 127q-55 90 -88 137q-1 2 -2 5q-34 -31 -59 -60q-3 -4 -9 -5q-1 -126 -1 -189q0 -7 -5.5 -12.5t-12.5 -5.5t-12.5 5.5t-5.5 12.5q0 62 2 200t1 242t-6 200q0 7 5 12.5t12 6
t12.5 -4.5t6.5 -12q8 -147 5 -406q30 32 102 93q87 74 119 107q5 6 12.5 6t13 -5t5.5 -12.5t-5 -12.5q-34 -35 -122 -110l-34 -29q5 -2 8 -6z" />
    <glyph glyph-name="l" unicode="l" horiz-adv-x="166" 
d="M91 692q10 -77 11 -168q0 -95 -4 -169q-5 -75 -3.5 -166.5t13.5 -164.5q1 -8 -3.5 -13.5t-12 -7t-13 3t-7.5 11.5q-11 76 -12.5 170t2.5 168q5 75 4 167q0 88 -11 165q-1 7 3.5 13t12 7t13.5 -3.5t7 -12.5z" />
    <glyph glyph-name="m" unicode="m" horiz-adv-x="723" 
d="M91 445q2 -46 1 -97l34 30q36 32 61 51q38 29 68 43q39 18 67 11q39 -10 54 -78q1 -5 2 -11q37 29 59 43.5t59.5 29.5t75.5 17q4 0 12 1q11 1 16 2q23 1 37 -10t20 -37q6 -21 7 -52q3 -53 -4 -137q-4 -43 -10 -92l-12 -91q-5 -42 -6 -51q-1 -7 -7 -12t-13 -4t-12 7t-4 13
q1 9 7 50.5t11.5 90.5t9.5 92q7 82 5 132q-2 28 -6 45q-4 15 -8 18q-3 3 -13 2q-4 0 -13 -1q-10 -2 -15 -2q-34 -1 -66.5 -14.5t-53 -27.5t-58.5 -43q-6 -5 -13 -4q3 -36 2 -85q-2 -120 -22 -231q-2 -7 -8 -11.5t-13 -3t-11.5 7.5t-3.5 13q20 110 23 226q1 76 -9 122
q-10 47 -29 52q-15 4 -42 -9q-25 -12 -61 -39q-26 -20 -60 -50q-43 -38 -45 -40q-5 -4 -13 -4q-2 -102 -17 -292q-1 -8 -6.5 -12.5t-13 -4t-12 6t-4.5 12.5q23 283 17 426q0 8 5 13t12.5 5.5t12.5 -4.5t6 -12z" />
    <glyph glyph-name="n" unicode="n" horiz-adv-x="496" 
d="M74 357q15 -124 0 -320q-1 -8 -6.5 -12.5t-13 -4t-12 6t-4.5 12.5q7 82 8.5 144t-5 139t-23.5 139q-2 7 1.5 13.5t10.5 8.5t13.5 -1.5t8.5 -10.5q10 -35 16 -71l22 26q6 7 20 18.5t36 23.5q43 25 108 41l12 3q11 3 13.5 3.5t13.5 2.5t16 2t15 -0.5t17 -2.5t15 -5.5
t16 -9.5q33 -25 45 -89q9 -47 7 -124q0 -7 -5 -126q-3 -67 2 -91q1 -7 3 -14l6 -16q4 -10 7 -17q2 -7 -1 -13.5t-10 -9t-13.5 0.5t-9.5 10q-1 4 -5.5 14.5t-7.5 20.5t-5 18q-4 29 -1 99q5 118 5 125q1 72 -7 116q-9 51 -32 68q-11 8 -27 9.5t-25.5 -0.5t-35.5 -8
q-60 -15 -98 -37q-14 -8 -22 -14q-8 -5 -16 -12l-12 -12q-3 -3 -13.5 -16.5t-16.5 -20.5q-4 -5 -10 -6z" />
    <glyph glyph-name="o" unicode="o" horiz-adv-x="498" 
d="M201 461q4 2 8 2q39 -1 56.5 -2t50 -9.5t55.5 -26.5q35 -26 52.5 -68.5t16 -86.5t-12.5 -90q-20 -70 -64.5 -123t-102.5 -64q-47 -8 -86.5 4.5t-66 40t-44 64t-23.5 78.5q-8 56 2 110.5t43 100.5t85 65q12 4 31 5zM230 426q-1 0 -28 -1q-13 0 -20 -3q-62 -22 -90.5 -90
t-16.5 -147q12 -78 59.5 -124t119.5 -32q45 8 83 53t56 107q18 61 7 119q-10 58 -51 89q-36 27 -117 30q-1 -1 -2 -1z" />
    <glyph glyph-name="p" unicode="p" horiz-adv-x="503" 
d="M83 68q2 -161 13 -289q0 -8 -4.5 -13.5t-12 -6t-13 4t-6.5 11.5q-12 142 -13 326.5t3 325.5q0 8 5.5 13t13 5t12.5 -5.5t5 -12.5l-2 -89q30 36 57.5 54t71.5 30q118 32 178 -39q49 -59 53 -180q0 -2 0.5 -16.5t0.5 -19.5t-1 -17.5t-3.5 -20t-7 -18.5t-11.5 -20
q-28 -37 -84.5 -56t-106.5 -18q-27 1 -56.5 10t-44.5 17zM83 106q5 0 9 -2q3 -2 16 -9t16.5 -8.5t14.5 -7l15 -7.5l14 -6q10 -4 16 -6l14 -3q9 -2 17 -3t16 -1q45 -1 93 15t70 45q13 17 15 39.5t-1 50.5q-3 108 -44 157q-46 54 -141 28q-40 -11 -63 -26q-21 -14 -49 -48
q-5 -6 -12.5 -6.5t-12.5 3.5l-2 2q-2 -123 -1 -207z" />
    <glyph glyph-name="q" unicode="q" horiz-adv-x="487" 
d="M388 365q-77 31 -118 38q-70 11 -113 -24q-31 -25 -60 -75q-29 -51 -41 -105q-14 -55 -1 -101t54 -66q38 -19 87 -7q22 6 48 19t42.5 23.5t47.5 32.5l43 30q2 1 3 1q0 133 8 234zM429 413q-11 -95 -12.5 -198.5t1.5 -247.5t3 -201q0 -7 -5.5 -12.5t-12.5 -5.5t-12.5 5.5
t-5.5 12.5q0 58 -2 168t-3 155l-22 -15l-24 -18q-7 -5 -23.5 -15.5t-26.5 -16.5l-26 -12q-14 -8 -27.5 -13t-26.5 -8q-23 -7 -55 -5t-56 14q-38 19 -58 53.5t-21 73t7 80.5q13 59 45 114.5t69 85.5q55 44 140 31q45 -7 117 -36l1 15q1 7 7 11.5t13 4t11.5 -6.5t4.5 -13z" />
    <glyph glyph-name="r" unicode="r" horiz-adv-x="377" 
d="M101 287q0 -41 -2 -86l-5 -101q-2 -55 -3 -83q-1 -7 -6 -12t-12.5 -4.5t-12.5 5.5t-5 13l5 107q4 86 5 123t-1 101t-9 116q-1 7 3.5 13t12 7t13.5 -3.5t7 -12.5q7 -57 9 -125q81 107 198 129q7 2 13 -2t7.5 -11.5t-2.5 -13.5t-12 -7q-64 -13 -110.5 -49t-86.5 -99
q-2 -3 -6 -5z" />
    <glyph glyph-name="s" unicode="s" horiz-adv-x="444" 
d="M351 479q-4 0 -37 -3t-48.5 -5t-43.5 -7q-27 -4 -49 -10q-105 -29 -112 -92q-3 -26 5 -38q11 -16 53 -31q2 -1 94 -28q30 -9 51.5 -17t46.5 -21.5t42.5 -32.5t26.5 -43q15 -43 -8 -80q-19 -28 -60 -49q-67 -32 -145 -34q-16 0 -32.5 2.5t-34.5 8.5t-28 10t-31.5 14
t-26.5 12q-7 3 -9.5 9.5t0.5 13.5t9.5 9.5t13.5 -0.5q7 -2 28 -12t30 -13l24 -9q17 -6 30 -7.5t27 -1.5q69 1 129 30q33 16 46 37q14 21 4 48q-12 33 -47.5 53.5t-95.5 38.5q-93 27 -96 28q-53 19 -71 45q-15 23 -11 62q11 87 138 122q23 7 52.5 12t46 6.5t50 5t35.5 3.5
q8 0 13.5 -4.5t6 -12t-4 -13t-11.5 -6.5z" />
    <glyph glyph-name="t" unicode="t" horiz-adv-x="293" 
d="M118 615q-5 -56 -1 -147q52 2 100 2q7 0 12.5 -5.5t5.5 -12.5t-5.5 -12.5t-12.5 -5.5q-48 0 -99 -1q4 -88 3 -131q-1 -23 -4.5 -70.5t-3.5 -69t5 -65.5q7 -30 14 -37q5 -4 16 -7q2 -1 4 -1.5t4.5 -1t4.5 -0.5q9 -2 15 -4q7 -3 10 -9.5t0.5 -13.5t-9 -10t-13.5 -1
q-4 2 -11 3l-14 3q-20 6 -31 16q-16 15 -24 57q-6 47 -6 70.5t3.5 73.5t3.5 67q1 44 -2 130q-56 -2 -124 -6q-7 0 -12.5 5t-6 12t4.5 12.5t12 6.5q68 3 124 5q-3 92 1 150q1 8 6.5 12.5t13 4t12 -6t4.5 -12.5z" />
    <glyph glyph-name="u" unicode="u" horiz-adv-x="498" 
d="M403 448v-1v1zM77 463q-12 -111 -12 -222q0 -74 9 -122q9 -54 27 -70q7 -7 32 -12t58 -5q32 -1 59 3q26 3 36 9t28 34q67 99 74 259q2 46 4 72q1 22 2 35q1 7 2 12q1 3 1.5 5t1.5 4q3 5 8 8q13 6 23 -3q5 -5 7 -13t3 -22q0 -22 -3 -61q-1 -12 -2 -25.5t-2.5 -24.5
t-2.5 -20t-1.5 -14.5t-0.5 -6.5q-11 -115 4 -260q0 -8 -4.5 -13.5t-12 -6t-13 4t-6.5 11.5q-6 68 -8 125q-18 -46 -44 -86q-23 -34 -40 -44q-15 -10 -49 -15q-30 -4 -65 -3q-36 1 -64 7q-34 6 -49 20q-27 24 -38 90q-9 53 -10 128q-1 103 12 226q1 7 7 11.5t13 4t11.5 -6.5
t4.5 -13z" />
    <glyph glyph-name="v" unicode="v" horiz-adv-x="452" 
d="M68 448q20 -75 65.5 -213.5t53.5 -166.5q8 -25 17 -59q0 -1 1 -2q1 3 2 5q18 42 22 53q13 32 62 180q38 115 69 181q3 6 10 8.5t13.5 -0.5t9 -10t-0.5 -14q-30 -63 -67 -176q-49 -150 -62 -183q-5 -10 -24 -53q-1 -3 -2 -6.5t-2 -9.5l-2 -13q-8 -32 -33 -33q-17 0 -25 15
q-3 8 -4 21v10v7q0 7 -1 10l-17 59q-8 27 -54 167t-65 215q-2 7 1.5 13t11 8t13.5 -1.5t8 -11.5z" />
    <glyph glyph-name="w" unicode="w" horiz-adv-x="667" 
d="M57 446l21 -130q7 -42 22.5 -112.5t33.5 -126.5q11 -34 17 -48q7 -17 14 -26q6 9 13 27q16 35 37 95q39 112 54 167q4 16 14 69q4 19 6 27q2 6 3.5 10t4.5 6q6 8 16 7q11 -1 18 -13q3 -6 6 -15q4 -14 10 -41q2 -8 19 -119q13 -83 22 -121q6 -27 11 -42l6 -13
q7 -5 17.5 -5t17.5 4q0 1 1 2l6 12l16 44q18 49 43 131l27 93l27 88q10 35 14 47q3 7 9.5 10t13.5 0.5t10 -9t1 -13.5q-4 -12 -14 -46l-27 -88l-27 -92q-26 -86 -43 -133q-10 -29 -18 -46q-4 -10 -7 -16q-5 -9 -11 -12q-16 -12 -38 -12t-38 11q-11 8 -20 31q-6 17 -12 46
q-7 32 -22 124q-14 87 -18 110q-5 -28 -10 -44q-13 -52 -55 -171q-22 -64 -37 -97q-9 -21 -16 -33q-5 -8 -9 -12q-8 -8 -17 -9q-18 -1 -33 20q-9 12 -18 33q-6 15 -18 52q-18 56 -34 128.5t-23 113.5l-22 131q-1 7 3.5 13t11.5 7.5t13 -3t8 -11.5z" />
    <glyph glyph-name="x" unicode="x" horiz-adv-x="446" 
d="M223 218q-118 -144 -173 -239q-3 -6 -10.5 -8t-13.5 1.5t-8 11t2 13.5q56 98 182 252q-75 107 -147 183q-5 5 -5 12.5t5.5 12.5t13 5t12.5 -6q71 -75 145 -179q79 97 116 147q4 6 11.5 7t13.5 -3.5t7 -12t-4 -13.5q-39 -53 -123 -155l138 -212q4 -7 2.5 -14t-8 -11
t-13.5 -2.5t-11 7.5q-102 160 -132 203z" />
    <glyph glyph-name="y" unicode="y" horiz-adv-x="480" 
d="M421 437q-15 -36 -47 -98l-48 -94q-20 -43 -22 -52q-4 -20 -19 -60q-60 -149 -206 -333q-5 -6 -12 -7t-13 4t-7 12t4 13q92 116 145 210q-9 18 -51 92q-33 59 -49 96q-7 16 -25.5 62t-31.5 75.5t-29 57.5q-4 7 -2 14t8.5 10.5t13.5 1.5t10 -8q17 -29 31 -60.5t32.5 -78
t24.5 -60.5q15 -34 48 -93l40 -71q20 38 35 77q15 37 19 53q2 13 24 59q9 20 49 97q30 58 44 95q3 6 10 9t13.5 0.5t9.5 -9.5t1 -14z" />
    <glyph glyph-name="z" unicode="z" horiz-adv-x="507" 
d="M39 445q23 0 76 3q49 2 77 2q121 -3 166 3q3 0 6 1t8.5 3.5t10.5 4.5q12 4 20 4q16 0 24 -14q4 -7 2 -14q-1 -2 -1 -4q-1 -1 -2 -2.5t-3 -3.5l-8 -9l-24 -27l-35 -38q-156 -162 -212 -226l-37 -40l-10 -11h1q67 3 102 5q160 6 232 2q7 -1 12 -6.5t4.5 -12.5t-6 -12
t-12.5 -5q-62 4 -229 -2q-48 -2 -101 -4q-22 -1 -31 -2h-9h-3h-3q-1 0 -2 1q-2 0 -4 1q-5 3 -7 9q-3 6 -1 13q1 2 2 3q0 1 1 2.5t3 3.5l9 10l26 29l36 40h1q55 63 212 226l35 38l2 2q-3 0 -5 -1q-47 -5 -170 -3q-25 1 -76 -2q-53 -3 -77 -3q-7 0 -12.5 5.5t-5.5 12.5
t5.5 12.5t12.5 5.5z" />
    <glyph glyph-name="braceleft" unicode="{" horiz-adv-x="280" 
d="M212 730q-6 -3 -15 -6l-5 -2q-5 -2 -8 -3q-13 -5 -19 -10q-38 -33 -40 -120q-1 -25 1 -76q3 -49 2 -71q-3 -44 -18 -88t-45 -70q-9 -8 -35 -14q28 -15 29 -16q6 -5 15 -12l17 -12l12 -10q17 -18 28 -55q6 -18 9 -35.5t3 -36.5t-0.5 -30t-3 -33t-2.5 -27q-3 -41 3 -74.5
t32 -71.5q4 -6 2.5 -13.5t-7.5 -11.5t-13.5 -2.5t-11.5 7.5q-29 45 -36.5 84t-3.5 85q0 7 2 28t2.5 30.5t0.5 27t-2.5 32.5t-7.5 31q-9 29 -20 40q-4 4 -9 7.5t-14 9.5l-17 14l-6 4l-8 4q-5 2 -10 5q-27 14 -25 37q2 15 15 23q7 4 18 6q19 4 20 5q23 21 36 58t15 76
q1 20 -1 67q-3 52 -2 79q3 102 52 145q11 10 30 17l14 5q7 3 11 5q7 3 14 0.5t10 -9t0.5 -13.5t-8.5 -10z" />
    <glyph glyph-name="bar" unicode="|" horiz-adv-x="159" 
d="M85 749q13 -91 15 -209q2 -106 -1 -207q-1 -36 0 -217t-2 -217q0 -7 -5.5 -12t-13 -5t-12.5 5.5t-5 13.5q4 36 3 216t-1 216q3 91 1 206.5t-15 203.5q-1 8 3.5 14t12 7t13.5 -3.5t7 -11.5z" />
    <glyph glyph-name="braceright" unicode="}" horiz-adv-x="355" 
d="M41 752q58 -24 86 -61.5t37 -89.5q4 -27 6 -93q2 -62 8 -95q11 -66 31 -91q9 -12 35 -28q1 -1 23 -6q12 -3 18 -7q14 -10 12 -26t-18 -23q-7 -3 -19 -4l-15 -1q-5 -1 -6 -2q-17 -12 -30 -36q-12 -22 -17.5 -47t-6.5 -40t-0.5 -47t0.5 -43q-1 -55 -22 -97.5t-81 -79.5
q-6 -4 -13 -2.5t-11 8t-2.5 13.5t8.5 11q51 32 68 66.5t18 80.5q0 8 -0.5 41.5t0.5 51t7.5 47t19.5 53.5q17 33 42 50q5 3 13 5q-5 2 -8 4q-30 20 -43 36q-25 33 -39 107q-6 35 -8 100q-1 63 -6 89q-7 43 -29 73t-72 49q-6 3 -9 10t-0.5 13.5t9.5 9.5t14 1z" />
    <glyph glyph-name="asciitilde" unicode="~" horiz-adv-x="507" 
d="M24 350q44 75 90 88q52 14 119 -42l20 -21q9 -10 16 -14q50 -28 87 -10q34 17 59 72q3 7 10 9.5t13.5 -0.5t9 -10t-0.5 -13q-30 -67 -75 -90q-54 -27 -121 12q-11 6 -24 20q-15 15 -18 17q-51 45 -85 35q-33 -9 -70 -71q-3 -6 -10.5 -8t-13.5 1.5t-8 11t2 13.5z" />
    <glyph glyph-name="quoteleft" unicode="&#x2018;" horiz-adv-x="218" 
d="M158 678l-32 -80q-22 -53 -35 -80q-3 -7 -10 -9.5t-13.5 0.5t-9 10t0.5 13l33 82q22 53 34 78q3 7 10 9.5t13.5 -0.5t9 -10t-0.5 -13z" />
    <glyph glyph-name="quoteright" unicode="&#x2019;" horiz-adv-x="208" 
d="M149 672q-10 -24 -31.5 -82t-34.5 -89q-2 -7 -9 -9.5t-14 0t-9.5 9.5t0.5 14l33 89l31 82q3 6 10 9t13.5 0.5t9.5 -9.5t1 -14z" />
    <glyph glyph-name="quotedblleft" unicode="&#x201c;" horiz-adv-x="346" 
d="M23 505q35 114 58 173q3 6 10 9t13.5 0.5t9.5 -9.5t1 -14q-24 -57 -58 -169q-2 -7 -8.5 -10.5t-13.5 -1.5t-10.5 8.5t-1.5 13.5zM193 490q11 41 33 114l27 94q2 7 8.5 10.5t13.5 1.5t10.5 -8.5t1.5 -13.5l-27 -94q-22 -73 -33 -114q-2 -7 -8.5 -10.5t-13.5 -1.5
t-10.5 8.5t-1.5 13.5z" />
    <glyph glyph-name="quotedblright" unicode="&#x201d;" horiz-adv-x="333" 
d="M119 672q-15 -28 -35 -76l-33 -79q-3 -7 -9.5 -9.5t-13.5 0.5t-9.5 9.5t0.5 13.5l32 79q19 47 36 78q4 7 11 9t13.5 -1.5t8.5 -10.5t-1 -13zM273 655q-28 -54 -68 -146q-3 -7 -9.5 -9.5t-13.5 0.5t-9.5 9.5t0.5 13.5q41 97 68 148q4 7 11 9t13.5 -1.5t8.5 -10.5t-1 -13z
" />
    <glyph glyph-name="uni3000" unicode="&#x3000;" horiz-adv-x="1000" 
 />
  </font>
</defs>
</svg>
