<?xml version="1.0" standalone="no"?>
<!DOCTYPE svg PUBLIC "-//W3C//DTD SVG 1.1//EN" "http://www.w3.org/Graphics/SVG/1.1/DTD/svg11.dtd" >
<svg xmlns="http://www.w3.org/2000/svg" xmlns:xlink="http://www.w3.org/1999/xlink" version="1.1">
<metadata>
Created by FontForge 20201107 at Wed Apr 17 02:43:35 2013
 By Unknown
LDF
</metadata>
<defs>
<font id="LDFComicSans" horiz-adv-x="669" >
  <font-face 
    font-family="LDFComicSans"
    font-weight="500"
    font-stretch="normal"
    units-per-em="1000"
    panose-1="2 0 6 3 0 0 0 0 0 0"
    ascent="800"
    descent="-200"
    x-height="490.5"
    cap-height="755"
    bbox="-110.062 -284 897.97 881"
    underline-thickness="50"
    underline-position="-150"
    unicode-range="U+0020-3000"
  />
<missing-glyph horiz-adv-x="364" 
d="M66 33h199v600h-199v-600zM33 0v666h265v-666h-265z" />
    <glyph glyph-name=".notdef" horiz-adv-x="364" 
d="M66 33h199v600h-199v-600zM33 0v666h265v-666h-265z" />
    <glyph glyph-name=".null" horiz-adv-x="0" 
 />
    <glyph glyph-name="nonmarkingreturn" horiz-adv-x="333" 
 />
    <glyph glyph-name="space" unicode=" " horiz-adv-x="300" 
 />
    <glyph glyph-name="exclam" unicode="!" horiz-adv-x="227" 
d="M151 705q17 -178 17 -455q0 -21 -14.5 -35.5t-35.5 -14.5t-35.5 14.5t-14.5 35.5q0 266 -17 445q-2 21 11.5 37t34 18t36.5 -11.5t18 -33.5zM168 57q0 -21 -14.5 -35.5t-35.5 -14.5t-35.5 14.5t-14.5 35.5t14.5 35.5t35.5 14.5t35.5 -14.5t14.5 -35.5z" />
    <glyph glyph-name="quotedbl" unicode="&#x22;" horiz-adv-x="334" 
d="M101 695q4 -110 6 -228q0 -21 -14 -36t-35 -15t-36 14t-15 35q-2 117 -6 226q-1 21 13.5 36t35 16t35.5 -13.5t16 -34.5zM270 700q5 -98 5 -234q0 -21 -14.5 -35.5t-35.5 -14.5t-35.5 14.5t-14.5 35.5q0 123 -5 228q-1 21 13 36.5t34.5 16.5t36 -13t16.5 -34z" />
    <glyph glyph-name="numbersign" unicode="#" horiz-adv-x="786" 
d="M417 315q10 80 17 149q-93 -2 -179 -6l-10 -90q-4 -31 -10 -67q163 12 182 14zM404 214l-100 -8q-65 -5 -85 -6l-27 -160q-3 -21 -19.5 -33.5t-37 -9t-33 20t-8.5 36.5q6 43 22 139q-40 -3 -76 -5q-21 -1 -36.5 13t-16.5 34.5t13 36t34 16.5q58 3 99 6q8 47 12 86l9 72
q-61 -4 -121 -9q-20 -2 -36 11.5t-18 34t11.5 36.5t34.5 18q69 6 142 10q11 85 24 151q4 20 21.5 31.5t37.5 7.5t31.5 -21.5t7.5 -37.5q-11 -56 -21 -125q84 3 174 5q4 45 6 92q1 21 16.5 35t36 13t34.5 -16.5t13 -35.5q-2 -45 -5 -86q64 1 134 1q21 0 35.5 -14.5
t14.5 -35.5t-14.5 -35.5t-35.5 -14.5q-75 0 -143 -1q-6 -67 -16 -145q81 5 149 6q21 0 36 -14t15 -35t-14 -36t-35 -15q-75 -1 -164 -7l-27 -201q-3 -20 -19.5 -32.5t-37 -10t-33 19t-10.5 37.5z" />
    <glyph glyph-name="dollar" unicode="$" 
d="M239 476q-1 96 -1 176q-56 -15 -98 -59q-12 -14 -25 -34.5t-14 -28.5q-2 -11 2 -17.5t17 -13.5q24 -12 84 -19q13 -2 35 -4zM341 363q0 -25 1.5 -129t2.5 -160q19 5 38 11q73 24 105.5 68t16.5 99q-11 39 -39 62q-28 24 -74 37q-23 7 -51 12zM339 756q115 -15 220 -94
q17 -12 19.5 -32.5t-9.5 -37.5t-32.5 -19.5t-37.5 9.5q-80 60 -161 74q0 -86 1 -192q46 -7 81 -17q145 -42 181 -167q14 -58 5.5 -104.5t-38.5 -83.5t-68 -62t-85 -40q-34 -11 -69 -17v-102q0 -21 -14.5 -35.5t-35.5 -14.5t-35.5 14.5t-14.5 35.5v96q-119 5 -193 65
q-11 9 -20.5 19.5t-17.5 23.5l-13 21q-4 7 -12 22l-8 16q-10 19 -4 38.5t24.5 29.5t38 4t29.5 -24q4 -7 10.5 -20.5t9 -18t7.5 -12t9.5 -12.5t10.5 -9q45 -38 128 -43q-1 59 -2.5 167.5t-2.5 140.5l-48 5q-77 10 -116 30q-37 18 -58.5 51t-16.5 81q4 30 29 69q18 30 38 50
q73 78 171 94q0 39 1 77q0 21 15 35t36 14t35 -15t14 -36q-1 -36 -1 -74z" />
    <glyph glyph-name="percent" unicode="%" horiz-adv-x="747" 
d="M137 720q16 18 40 16h8h15q26 0 46 -8q47 -20 70 -64.5t23 -94.5q-1 -48 -24 -92t-67 -65q-48 -23 -91.5 -14.5t-75.5 36t-48 65.5q-15 42 -11.5 82t33.5 78t82 61zM488 221q-3 -2 -5 -3q-19 -19 -27 -47t-4 -52q9 -46 60 -45q42 1 57 44q8 21 4.5 42.5t-17.5 37.5
q-9 10 -18.5 14.5t-17.5 5.5t-32 3zM556 312q43 -13 74 -48q34 -37 42 -87.5t-8 -92.5q-17 -47 -56.5 -78t-93.5 -32q-66 -1 -107.5 35t-52.5 91q-9 49 6.5 100.5t52.5 87.5q7 8 16 14q16 21 42 21l6 3l13 5q18 10 37 4t29 -23zM188 633q-26 -9 -42 -22t-21 -26.5t-4.5 -25
t4.5 -21.5q11 -27 34 -37t45 1q14 7 24 25.5t11 43.5q0 25 -9 42t-23 23h-7h-6q-3 -2 -6 -3zM49 71l551 654q14 16 35 17t36.5 -12.5t16.5 -34.5t-12 -36l-551 -652q-13 -16 -33.5 -18t-36.5 11.5t-18 34t12 36.5z" />
    <glyph glyph-name="ampersand" unicode="&#x26;" horiz-adv-x="637" 
d="M256 386q-64 -55 -96 -91q-29 -33 -44.5 -62.5t-19.5 -63t10 -65.5q30 -79 114 -61q41 8 82 36.5t63 62.5q6 9 11 18q-9 17 -34 68l-38 77q-15 29 -48 81zM486 164q38 -70 79 -116q14 -15 13 -35.5t-16.5 -34.5t-36 -13t-34.5 17q-32 35 -61 80q-35 -43 -85.5 -74.5
t-104.5 -42.5q-32 -9 -66.5 -5t-64.5 17t-55.5 41.5t-41.5 69.5q-56 146 74 293q37 42 106 101l12 11q-18 33 -30 63q-11 25 -19 56q-5 22 -7 38q-2 29 6 48q13 29 40 48.5t58 28.5q74 21 124 -19q25 -19 37 -46.5t11 -52t-6 -48.5q-16 -66 -62 -114l-23 -22q44 -72 59 -100
l25 -48q2 16 3 35q2 20 18 33.5t36.5 11.5t34 -18t11.5 -37q-9 -100 -34 -166zM248 641v-1q1 -9 4 -23q6 -25 14 -43l15 -32l3 3q28 28 37 68q9 33 -7 45q-10 8 -36 0q-20 -5 -30 -17z" />
    <glyph glyph-name="quotesingle" unicode="'" horiz-adv-x="201" 
d="M139 692q-2 -68 3 -171q1 -21 -13 -36.5t-34.5 -16.5t-36 13t-16.5 34q-5 104 -3 181q1 20 16 34.5t35.5 13.5t35 -16t13.5 -36z" />
    <glyph glyph-name="parenleft" unicode="(" horiz-adv-x="287" 
d="M211 727q-68 -117 -92 -272.5t2 -310.5q26 -154 99 -267q11 -17 7 -37.5t-21.5 -31.5t-38 -7t-31.5 22q-83 128 -113 302t-2.5 347t104.5 305q10 18 30 23.5t38 -5t23.5 -30.5t-5.5 -38z" />
    <glyph glyph-name="parenright" unicode=")" horiz-adv-x="277" 
d="M123 780q109 -230 93 -489t-145 -476q-11 -17 -31 -22.5t-37.5 5.5t-23 31t5.5 38q117 196 131 431q15 231 -83 438q-9 19 -2.5 38.5t25.5 28.5t38.5 2.5t28.5 -25.5z" />
    <glyph glyph-name="asterisk" unicode="*" horiz-adv-x="494" 
d="M91 554l-77 13q-20 3 -32 20t-8.5 37.5t20.5 32.5t38 8q41 -7 76 -12q-1 29 -2 65q0 21 14 36t35 15t36 -14t15 -35q1 -44 2 -75q68 10 160 42q20 7 38.5 -2t25.5 -28.5t-2 -38t-28 -25.5q-88 -32 -159 -44l116 -121q14 -15 14 -35.5t-15 -35t-35.5 -14.5t-35.5 15
l-122 128q-53 -54 -95 -120q-11 -18 -31.5 -22t-38 7t-21.5 31.5t7 37.5q47 73 105 134z" />
    <glyph glyph-name="plus" unicode="+" horiz-adv-x="584" 
d="M215 256q-103 -3 -170 -6q-21 -1 -36 13t-16 35t13 36t35 16q67 3 173 6q-1 72 -4 166q-1 21 13.5 36t35 16t35.5 -13.5t16 -34.5q3 -93 4 -167q95 3 159 6q21 1 36 -13t16 -35t-13 -36t-35 -16q-65 -3 -162 -6q0 -97 -3 -182q-1 -21 -16 -35t-36 -13t-35 16t-13 36
q3 83 3 175z" />
    <glyph glyph-name="comma" unicode="," horiz-adv-x="251" 
d="M188 57l-31 -78q-21 -53 -36 -83q-10 -19 -29.5 -25.5t-38 3t-25 29t2.5 37.5q15 29 33 75q27 70 32 82q8 19 27 26.5t38.5 -0.5t27 -27t-0.5 -39z" />
    <glyph glyph-name="hyphen" unicode="-" horiz-adv-x="301" 
d="M32 322q23 1 76 3.5t81 4.5q21 1 36.5 -12.5t16.5 -34.5t-12.5 -36.5t-34.5 -16.5q-28 -2 -81 -4.5t-76 -3.5q-21 -1 -36.5 13t-16.5 34.5t13 36t34 16.5z" />
    <glyph glyph-name="period" unicode="." horiz-adv-x="218" 
d="M159 60q0 -21 -14.5 -35.5t-35.5 -14.5t-35.5 14.5t-14.5 35.5t14.5 35.5t35.5 14.5t35.5 -14.5t14.5 -35.5z" />
    <glyph glyph-name="slash" unicode="/" horiz-adv-x="362" 
d="M299 680q-24 -60 -53 -153l-21 -71q-16 -56 -27 -89q-24 -76 -69 -203l-57 -162q-6 -20 -24.5 -29t-38.5 -2.5t-29 25t-2 38.5q10 31 56 161.5t68 201.5q10 31 27 89l21 70q30 97 57 162q8 19 27 27t38 0t27 -27t0 -38z" />
    <glyph glyph-name="zero" unicode="0" horiz-adv-x="597" 
d="M276 722q21 14 45 5q32 -13 53 -23t49 -30q28 -21 48 -48q12 -16 31 -56q19 -39 24 -57q18 -65 10 -161q-9 -96 -40 -185q-16 -46 -38 -86q-23 -40 -54 -75.5t-73 -56t-91 -20.5q-60 0 -106.5 34t-76.5 89q-55 101 -56 244q0 66 13.5 131t41 126t76.5 106.5t113 63.5
q16 5 31 -1zM273 627q-80 -23 -126 -115.5t-46 -214.5q1 -118 44 -197q39 -71 95 -71q49 0 91 44.5t71 126.5q27 76 34 160t-6 127q-3 9 -18 40t-21 39q-17 23 -41 37q-23 14 -64 30q-6 -4 -13 -6z" />
    <glyph glyph-name="one" unicode="1" horiz-adv-x="245" 
d="M17 664q4 3 7 7t10 11l13 16q37 40 79 40q29 0 45 -25q5 -8 8 -18.5t4 -26.5q3 -22 3 -60q1 -24 0.5 -40.5t-0.5 -33.5v-18q0 -55 -2.5 -160t-2.5 -160t4 -159q1 -21 -13 -37q-13 -15 -34 -16t-36.5 12.5t-16.5 34.5q-4 105 -4 161t2.5 162.5t2.5 161.5v14q0 14 0.5 28
t-0.5 34q-3 -3 -7 -6q-16 -13 -36.5 -11t-33.5 18.5t-11 37t19 33.5z" />
    <glyph glyph-name="two" unicode="2" horiz-adv-x="574" 
d="M17 582q3 3 20 18l28 24l28 22q17 14 33.5 25.5t33.5 20.5q120 68 212 10q35 -22 62 -75t26 -97q-2 -76 -28 -126q-26 -49 -74 -84q-19 -14 -82 -50q-49 -29 -77 -53q-36 -31 -71 -109q-3 -6 -5 -11.5t-3 -7.5t-2 -2q2 -4 4 -7q7 0 19 1q25 1 69 4q20 1 46.5 3t41.5 3
t16 1q26 1 156 -12q21 -2 34 -18.5t11 -37t-18.5 -33.5t-36.5 -11q-127 13 -142 12q-2 0 -16 -1t-39.5 -2.5t-46.5 -3.5q-44 -3 -70 -4q-16 -1 -25 -1h-9q-9 0 -17 2q-29 9 -48 32.5t-26 49.5q-2 8 -2.5 16.5t0.5 16.5t2.5 15t4.5 13.5t4.5 10.5t3.5 8l2 4q44 99 97 145
q36 30 92 63q60 34 74 45q29 21 44.5 50t16.5 81q0 19 -15 49q-15 29 -27 37q-41 26 -109 -13l-27 -17q-13 -9 -28 -21l-24 -19l-26 -22l-23 -20q-15 -13 -36 -11.5t-34 17t-11.5 36.5t17.5 34z" />
    <glyph glyph-name="three" unicode="3" horiz-adv-x="541" 
d="M96 144q49 -67 114 -80q66 -13 125 40q32 29 42 59t1 71q-3 15 -45 25l-29 6l-28 6q-42 11 -64 29q-22 19 -19 46q3 32 33 44q11 4 29 6q16 1 18 1q0 1 1 1q40 22 64 47q9 9 15 45q6 35 2 47q-7 21 -29.5 39t-57.5 27q-36 9 -68 6t-53 -15q-9 -6 -16 -13.5t-18.5 -21.5
t-25.5 -27q-14 -15 -35 -15t-35.5 14.5t-14.5 35.5t15 35q1 2 16 19t31 32.5t31 24.5q40 26 96 30q56 5 102 -8q54 -15 97 -48q44 -33 61 -85q11 -35 1 -94q-11 -66 -42 -98q-13 -13 -29 -26q80 -26 95 -93q29 -133 -75 -226q-95 -86 -210 -64q-103 20 -175 118
q-13 17 -9.5 37.5t20 33t37 9t32.5 -19.5z" />
    <glyph glyph-name="four" unicode="4" horiz-adv-x="610" 
d="M419 699q21 -129 22 -331v-21q46 2 61 2q21 0 35 -15t14 -36t-15 -35t-36 -14q-14 0 -59 -2q1 -115 5 -201q1 -21 -13 -36.5t-34.5 -16.5t-36 13t-16.5 34q-4 78 -5 200q-40 -2 -87 -3q-96 -3 -150 3q-37 5 -61 13q-39 14 -54 42q-5 12 -5 26v9q1 6 3 16l8 36l8 35l3 11
l1 2q9 49 21 140t18 128q3 20 19.5 32.5t37 9t33 -20t8.5 -37.5q-6 -37 -18 -129t-21 -141q0 -2 -2 -8l-3 -12l-8 -33l-3 -15q11 -2 27 -4q46 -6 135 -3q47 1 90 4v26q-1 195 -20 316q-4 21 8.5 37.5t33 20t37 -9t19.5 -32.5z" />
    <glyph glyph-name="five" unicode="5" horiz-adv-x="607" 
d="M72 718q80 -3 228 1.5t198 4.5q21 0 35.5 -14.5t14.5 -35.5t-14.5 -35.5t-35.5 -14.5q-57 0 -180.5 -4t-187.5 -3q0 -2 -13 -185q15 6 25 9q122 37 221 -1q56 -22 94 -67t51 -111q11 -58 -2 -110.5t-45 -90.5t-75.5 -65.5t-93.5 -40t-99 -9.5q-48 3 -87 20.5t-82 47.5
q-17 12 -20.5 32.5t8.5 37.5t32.5 20.5t37.5 -8.5q36 -25 61 -36q26 -12 56 -14q62 -4 115 22t79.5 73.5t16.5 100.5q-15 78 -83 104q-67 26 -157 -1q-10 -3 -49 -20q-20 -9 -28 -12l-12 -5q-5 -2 -9 -2q-5 -1 -11 -1q-15 0 -28 9q-36 26 -23 76q1 7 2.5 11t2 4.5l0.5 0.5v2
l9 104q6 81 7 125q-12 15 -11 33q1 21 16 35t36 13z" />
    <glyph glyph-name="six" unicode="6" horiz-adv-x="521" 
d="M76 288q-2 -49 4 -95q16 -100 78 -133q61 -32 148 17q0 1 0.5 1t5 6.5t9.5 14.5q12 23 18 38q17 52 22 89t-6 69.5t-42 50.5q-25 15 -52.5 18t-56.5 -7t-55.5 -24.5t-62.5 -38.5q-5 -4 -10 -6zM99 420q148 82 266 12q150 -90 68 -327q-8 -24 -26 -56q-25 -44 -51 -58
q-65 -37 -128 -42q-62 -5 -116 23q-53 27 -86 81q-34 54 -44 126q-15 96 3 197.5t70.5 194t131.5 150.5q17 13 37.5 9.5t33 -20t9 -37t-19.5 -32.5q-104 -78 -148 -221z" />
    <glyph glyph-name="seven" unicode="7" horiz-adv-x="577" 
d="M28 697q155 8 332 8h58h1q2 2 18 5q55 11 76 -34q9 -18 3 -39q-2 -7 -7 -16q-5 -11 -15 -26q-15 -21 -45 -57q-13 -17 -31 -39l-29 -35q-10 -12 -13 -16q-59 -90 -90 -176q-29 -80 -62 -218q-5 -21 -22.5 -31.5t-38 -6t-31 22t-6.5 37.5q33 140 67 233.5t99 192.5
q2 4 79 99l4 4h-15q-158 0 -326 -8q-21 -1 -36.5 13t-16.5 34.5t13 36t34 16.5z" />
    <glyph glyph-name="eight" unicode="8" horiz-adv-x="549" 
d="M219 727q18 20 45 15q55 -8 60 -10q18 -6 57 -38q47 -37 71.5 -80.5t17.5 -104.5q-12 -97 -101 -151q58 -24 88 -74q11 -16 23 -64q19 -74 2 -134t-66 -100q-44 -37 -107 -50q-62 -13 -127 1q-52 11 -95 45t-65 80t-26 100t20 105q23 48 74 81l-5 6q-22 22 -33 54.5
t-11 62.5t4 61q8 46 29 88q21 43 53 67q42 32 92 40zM205 293q-25 -9 -42 -18q-43 -21 -55 -50q-27 -58 3.5 -118t90.5 -72q49 -9 87 -1t63 29q54 45 32 131q-9 34 -11 38q-14 22 -38.5 32.5t-70.5 17.5q-50 9 -59 11zM272 634q-10 -2 -25 -4.5t-19.5 -3t-12.5 -3t-13 -5.5
q-6 -4 -15 -11q-13 -10 -25.5 -35t-17.5 -57q-11 -66 13 -93q16 -16 44 -25l39 13q66 23 96 46.5t34 64.5q4 28 -8 49t-43 46l-28 22q-2 0 -4 1q-7 -4 -15 -5z" />
    <glyph glyph-name="nine" unicode="9" horiz-adv-x="529" 
d="M362 385l4 22q12 85 -9 135q-23 53 -89 73q-14 4 -42 7t-34 2q-23 -6 -49.5 -36.5t-44.5 -75.5q-17 -49 -16.5 -82.5t15.5 -49.5q37 -41 110 -37q65 3 139 38q8 3 16 4zM325 265q-59 -19 -113 -22q-119 -6 -189 69q-28 31 -36.5 74.5t-2.5 83t21 79.5q24 60 66.5 109
t94.5 62q24 7 70 2q36 -4 60 -11q112 -34 153 -130q32 -76 15 -188q-50 -330 -354 -446q-20 -7 -38.5 1.5t-26 28t1 38t27.5 26.5q180 68 251 224z" />
    <glyph glyph-name="colon" unicode=":" horiz-adv-x="244" 
d="M185 449q0 -21 -14.5 -35.5t-35.5 -14.5t-35.5 14.5t-14.5 35.5t14.5 35.5t35.5 14.5t35.5 -14.5t14.5 -35.5zM179 54q0 -21 -14.5 -35.5t-35.5 -14.5t-35.5 14.5t-14.5 35.5t14.5 35.5t35.5 14.5t35.5 -14.5t14.5 -35.5z" />
    <glyph glyph-name="semicolon" unicode=";" horiz-adv-x="249" 
d="M186 60l-30 -77q-18 -48 -36 -81q-9 -18 -29 -24.5t-38 3t-24.5 29.5t3.5 38q14 28 31 71l31 79q7 19 26.5 27t38.5 0.5t27 -27t0 -38.5zM175 460q0 -21 -14.5 -35.5t-35.5 -14.5t-35.5 14.5t-14.5 35.5t14.5 35.5t35.5 14.5t35.5 -14.5t14.5 -35.5z" />
    <glyph glyph-name="less" unicode="&#x3c;" horiz-adv-x="624" 
d="M545 454q-3 -3 -27 -21l-30 -23l-28 -21q-22 -17 -31 -23l-30 -20l-33 -22l-30 -20q-20 -12 -34 -20l-33 -16l-35 -17q-18 -8 -58 -23q18 -7 20 -7l152 -73q90 -43 151 -66q19 -8 27.5 -26.5t1 -38t-26 -28t-38.5 -1.5q-65 25 -158 69l-151 72q-1 1 -3.5 2t-7 2.5
t-8.5 3.5q-23 9 -41 18q-27 12 -43 24q-37 27 -36 63q1 17 12 31q4 4 8 7t8 5q3 2 7 3q5 3 15 6l41 16q68 24 88 33q48 21 105.5 57.5t84.5 57.5l101 76q16 12 36.5 9.5t33 -19t10 -37t-19.5 -33.5z" />
    <glyph glyph-name="equal" unicode="=" horiz-adv-x="616" 
d="M41 425q71 2 235 -2q152 -4 228 1q21 1 36.5 -12.5t16.5 -34.5t-12.5 -36.5t-34.5 -16.5q-82 -5 -236 -1q-161 4 -229 2q-21 -1 -36 13.5t-16 35t13.5 35.5t34.5 16zM41 168q51 -7 114.5 -9.5t98 -2.5t122 2.5t107.5 2.5q21 0 36 -14t15 -35t-14 -36t-35 -15
q-16 0 -105.5 -2.5t-126 -2.5t-104 2.5t-120.5 9.5q-21 3 -33.5 19.5t-10 37t19 33t36.5 10.5z" />
    <glyph glyph-name="greater" unicode="&#x3e;" horiz-adv-x="593" 
d="M39 521q58 -24 187 -94q109 -59 177 -86l50 -20q0 -1 1 -1h2q1 0 5.5 -0.5t12.5 -1.5q6 -1 11.5 -3t18.5 -8t21 -19t9 -31q1 -22 -14 -42q-7 -9 -19 -18q-15 -12 -39 -25q-36 -20 -62 -31q-29 -11 -93 -30q-56 -16 -84 -28t-98 -48q-66 -34 -109 -50q-19 -7 -38 1.5
t-26 28t2 38.5q8 19 28 26q32 11 97 45q74 38 106 51q31 13 94 32q60 18 85 28q4 1 16 7l-13 5q-70 28 -189 92q-129 70 -177 90q-19 8 -27 27t0 38t27 27t38 0z" />
    <glyph glyph-name="question" unicode="?" horiz-adv-x="580" 
d="M64 640l7 7l41 33q16 13 45 29.5t57 24.5q56 17 114 11t103 -35q49 -31 73 -84q24 -54 16 -122q-11 -90 -97 -189l-41 -45q-27 -30 -43.5 -50t-28.5 -41q-11 -17 -31 -22.5t-37.5 5.5t-23 31t5.5 38q16 26 36 50q20 25 50 59l38 41q65 75 72 135q9 77 -43 110
q-54 35 -135 12q-19 -5 -39.5 -17.5t-33.5 -22.5l-41 -34q-16 -14 -36.5 -12t-34 18t-11.5 36.5t18 33.5zM310 30q0 -21 -14.5 -35.5t-35.5 -14.5t-35.5 14.5t-14.5 35.5t14.5 35.5t35.5 14.5t35.5 -14.5t14.5 -35.5z" />
    <glyph glyph-name="at" unicode="@" horiz-adv-x="744" 
d="M382 477q-40 -5 -66.5 -16.5t-50.5 -34.5q-18 -19 -32.5 -52.5t-16.5 -64.5q-1 -28 9 -40q9 -13 35 -14q43 -2 75 72q11 27 23 68q6 24 7 26q2 7 4 12q3 6 6 11q13 18 34 21q29 5 48 -18q8 -10 11 -23q1 -8 1 -19q0 -5 -3 -27q-3 -39 -1 -63q0 -5 0.5 -9.5t0.5 -7.5
t0.5 -5t0.5 -3v-3v-1v-1l1 -1q10 -17 33 -9q16 5 32 18t25 27q25 37 28 88q2 52 -18 103q-20 52 -56 89q-37 38 -80 51q-48 14 -138 -8q-57 -13 -77 -31q-43 -37 -77 -111q-33 -73 -43 -158q-11 -89 9 -156q19 -68 64 -102q53 -38 150 -27q76 9 175 48q19 7 38 -1.5
t26.5 -27.5t-1 -38t-27.5 -27q-111 -43 -200 -53q-135 -15 -219 46q-75 55 -101 149t-13 201q11 99 52 190t101 143q39 33 119 53q117 28 190 6q69 -21 122 -75q51 -53 79 -125q18 -47 23 -93q5 -48 -5 -98t-37 -92q-18 -26 -47 -49.5t-62 -34.5q-25 -7 -49.5 -8t-50 12
t-44.5 38q-54 -71 -133 -67q-74 4 -111 54q-31 41 -28 104q2 50 24 100.5t54 82.5q66 66 173 81q21 2 37.5 -10.5t19 -33t-10 -37t-32.5 -19.5z" />
    <glyph glyph-name="A" unicode="A" horiz-adv-x="691" 
d="M223 339l164 67q-23 58 -46 109l-22 48q-11 -27 -21 -48q-30 -66 -75 -176zM172 213q-59 -141 -107 -231q-9 -19 -29 -25t-38.5 3.5t-24.5 29.5t4 38q43 82 92 199q-1 1 -1 3q-7 19 1.5 37t26.5 25q84 204 112 265q25 56 43 106q-1 1 1 19q2 19 9 33q17 31 53 31
q25 0 40 -20q2 -2 3 -4t1 -3l1 -1v-1h1v-2l2 -5l8 -17l24 -52l39 -86q24 -53 49 -117q30 -4 40 -32q12 -27 -8 -50l50 -132l64 -169q8 -20 0 -39t-27.5 -26.5t-38.5 0.5t-26 27q-24 59 -65.5 170t-46.5 126q-189 -77 -252 -100z" />
    <glyph glyph-name="B" unicode="B" horiz-adv-x="638" 
d="M103 353q89 18 180 55q64 27 102 54q34 24 37 39q9 46 -57 84q-32 19 -72.5 30.5t-71.5 13.5q-47 3 -107 0q-2 -80 -11 -275v-1zM461 394q65 -39 96.5 -106.5t17.5 -142.5t-76 -129q-75 -64 -228 -61q-99 2 -210 29q-7 -2 -14 -2q-21 0 -36 14t-15 35q-2 118 7 328
q10 241 11 300q-3 7 -3 14q-1 17 9 31q14 27 44 27q10 0 19 -4q88 5 144 2q42 -3 93.5 -17.5t94.5 -39.5q54 -32 86 -80t19 -111q-9 -46 -59 -87zM343 325l-22 -9q-120 -49 -222 -66q-4 -97 -4 -171q95 -23 178 -24q115 -2 160 37q39 33 45 81.5t-21 90.5t-78 58
q-5 2 -8.5 2.5t-10.5 0.5h-17z" />
    <glyph glyph-name="C" unicode="C" horiz-adv-x="651" 
d="M509 573q-142 127 -256 43q-52 -39 -92.5 -114t-60.5 -167l-8 -32l-4 -28q-4 -20 -5 -30.5t-1 -24t2 -24.5q15 -73 101 -95q43 -11 89 -8.5t85 15.5q16 6 34 15.5t27 15.5t35 25l33 24q17 12 37.5 8.5t32.5 -20.5t8.5 -37.5t-20.5 -32.5q-2 -1 -31 -22t-40.5 -28.5
t-36.5 -21t-47 -20.5q-52 -18 -111.5 -21t-119.5 11q-66 17 -113 59.5t-61 112.5q-2 10 -3 21t-1 22.5t0.5 21t2 22.5t2.5 20.5t4 21t4 18.5t4 18.5t3 15.5q24 105 73 196t119 143q54 41 115 51t129.5 -14.5t136.5 -85.5q16 -14 17 -34.5t-13 -36t-34.5 -16.5t-35.5 13z" />
    <glyph glyph-name="D" unicode="D" horiz-adv-x="675" 
d="M104 71q69 -43 136 -50t118 14t89 64q39 43 57 100.5t10 127.5t-46 137q-25 43 -46 59q-12 9 -58 27q-43 16 -109 37q-67 21 -143 41q19 -205 -8 -557zM77 741q95 -24 208 -59q71 -22 114 -39q60 -22 83 -40q36 -28 72 -89q49 -85 60 -175q10 -91 -14.5 -169t-77.5 -138
q-55 -61 -129 -90.5t-164.5 -19.5t-179.5 66q-19 11 -23 32q-25 16 -23 46q9 118 13.5 201.5t3.5 190.5q-1 104 -12 198q-2 17 7 32q-1 8 1 16q6 20 23.5 31t37.5 6z" />
    <glyph glyph-name="E" unicode="E" horiz-adv-x="601" 
d="M95 695q85 24 198.5 27.5t187.5 -12.5q20 -4 31.5 -21t7.5 -37.5t-21 -32t-38 -7.5q-69 15 -174 10.5t-177 -27.5q1 -21 4 -90q2 -46 2 -76q32 4 63.5 5.5t71.5 2.5t61 1h70h60q21 0 35.5 -14.5t14.5 -35.5t-14.5 -35.5t-35.5 -14.5h-54h-58q-18 0 -52 -0.5t-56.5 -1.5
t-51 -2.5t-54.5 -4.5q-1 -24 -4 -63q-4 -55 -5 -73q0 -9 -3 -40q-3 -26 -3 -42q-1 -17 1 -28h23q11 0 23 0.5t20.5 1t9.5 0.5q37 1 160 -3q92 -3 151 0q21 1 36.5 -12.5t16.5 -34.5t-12.5 -36.5t-34.5 -16.5q-60 -3 -161 0q-125 4 -154 3l-8 -1q-9 0 -21.5 -0.5t-23.5 -0.5
h-39q-10 1 -17 2q-18 2 -30 11q-27 20 -36 60q-5 24 -4 57q0 20 3 50t3 32q1 26 5 79q5 48 5 73q1 55 -3 154q-5 124 -5 159q0 21 14.5 35.5t35.5 14.5t36 -15z" />
    <glyph glyph-name="F" unicode="F" horiz-adv-x="615" 
d="M100 715q187 46 414 11q20 -3 32.5 -19.5t9 -37t-20 -33t-37.5 -8.5q-209 32 -383 -13q4 -84 7 -196q68 9 114 13t111 1.5t119 -17.5q20 -5 30.5 -23t5 -38t-23.5 -30.5t-38 -4.5q-46 12 -103 14t-99.5 -2t-112.5 -13q6 -205 9 -287q1 -21 -13 -36t-35 -16t-36 13t-16 35
l-8 296q-5 176 -14 355q-1 21 13 36.5t34 16.5q25 1 41 -17z" />
    <glyph glyph-name="G" unicode="G" horiz-adv-x="684" 
d="M539 597q-39 40 -75.5 55.5t-93.5 15.5q-152 0 -234 -114q-75 -104 -80 -276q-2 -67 4 -108q6 -42 29 -69q59 -69 173 -25q52 21 99 59t72 76q14 23 42 92q6 14 10 25q-48 -3 -102 -8l-119 -12q-65 -7 -102 -11q-21 -2 -37 11.5t-18 34t11.5 36.5t33.5 18
q37 3 105.5 10.5t124 12.5t104.5 9q2 0 8 1q13 3 19 4q44 7 69 -21q19 -19 16 -51q-2 -13 -7 -31q-7 -27 -24 -66q-31 -77 -50 -106q-33 -53 -92.5 -101.5t-126.5 -74.5q-49 -19 -97 -23t-99 14t-89 63q-22 25 -35.5 59.5t-17 65.5t-5 63.5t0.5 54.5q5 203 99 332
q111 156 315 156q77 0 132.5 -23t108.5 -78q14 -15 14 -35.5t-15 -35t-35.5 -14.5t-35.5 15z" />
    <glyph glyph-name="H" unicode="H" horiz-adv-x="707" 
d="M627 705q9 -47 13 -102.5t3.5 -102.5t-0.5 -100q1 -3 1 -6q2 -11 -1 -23v-45q0 -15 2.5 -118.5t2.5 -157.5q0 -21 -14.5 -35.5t-35.5 -14.5t-35.5 14.5t-14.5 35.5q0 54 -2.5 156.5t-2.5 117.5v3q-80 -13 -227 -33l-196 -28q1 -139 5 -243q1 -21 -13 -36t-35 -16t-36 13
t-16 35q-5 127 -6 360.5t-2 310.5q0 21 14 36t35 15t36 -14t15 -35q2 -81 2 -325q30 5 185.5 26.5t238.5 34.5q2 175 -14 259q-4 20 7 37q12 17 32.5 21t37.5 -7.5t21 -32.5z" />
    <glyph glyph-name="I" unicode="I" horiz-adv-x="221" 
d="M162 700q-34 -337 0 -690q2 -21 -11.5 -37t-34 -18t-36.5 11.5t-18 33.5q-36 374 0 710q2 21 18.5 34t37 11t33.5 -18.5t11 -36.5z" />
    <glyph glyph-name="J" unicode="J" horiz-adv-x="481" 
d="M406 703q10 -79 15 -182t-1 -219q-5 -114 -24 -183q-23 -84 -73.5 -128.5t-118.5 -40.5q-60 3 -114 43q-55 40 -90 103q-11 18 -5.5 38t23.5 30.5t38 5t30 -23.5q26 -45 60 -70t63 -26q27 -2 51.5 19t39.5 76q16 59 20.5 164.5t0 205t-14.5 174.5q-2 21 10.5 37.5t33 19
t37 -10t19.5 -32.5z" />
    <glyph glyph-name="K" unicode="K" horiz-adv-x="629" 
d="M193 377q111 -137 176 -185q31 -23 85 -55q89 -53 92 -55q18 -10 22.5 -30.5t-6 -38t-31 -22t-37.5 6.5q-4 2 -91 53q-57 33 -94 61q-70 52 -167 170q4 -134 4 -249q0 -21 -14.5 -35.5t-35.5 -14.5t-35.5 14.5t-14.5 35.5q0 171 -23 654q-1 21 13 36.5t34.5 16.5t36 -13
t16.5 -34l12 -235q140 107 311 257q16 13 36.5 11.5t34 -17t12 -36t-16.5 -34.5q-174 -151 -319 -262z" />
    <glyph glyph-name="L" unicode="L" horiz-adv-x="582" 
d="M128 693q0 -178 23 -507q0 -2 2 -86q0 -19 1 -32q4 1 10 1q42 2 111 11q142 17 185 29q19 6 37.5 -4.5t24 -30t-5 -38t-30.5 -23.5q-49 -14 -198 -33q-73 -9 -120 -11q-28 -1 -46 0q-12 1 -21 3q-20 5 -32 18t-12 23q-1 3 -1.5 6.5t-0.5 7.5q0 7 -1 19q-1 18 -1 52
q-2 81 -2 82q-23 332 -23 513q0 21 14.5 35.5t35.5 14.5t35.5 -14.5t14.5 -35.5z" />
    <glyph glyph-name="M" unicode="M" horiz-adv-x="884" 
d="M-15 31q21 53 41 120.5t30 107.5l34 131q22 91 29 116l20 85l14 54q4 13 7 20q2 6 4 11l6 10q2 2 5 5.5t14.5 9t23.5 4.5q22 -2 36 -18q4 -5 7 -11q3 -5 5 -12t5 -20q5 -19 12 -54l7 -35q4 -20 6.5 -31.5t2.5 -14.5q6 -22 43 -187q21 -94 40 -149q15 44 47 157
q38 134 57 190l28 82l17 51q4 11 7 17q1 4 3 7l2 6q3 3 5 7q15 18 39 18t40 -18q5 -6 9 -14q5 -9 10 -23q7 -19 17 -53q6 -21 22 -83q4 -14 20 -79l22 -86l21 -74q15 -53 24.5 -83t24.5 -72.5t29 -78.5q8 -19 0 -38.5t-27 -27t-38.5 0.5t-26.5 27q-16 39 -31 83l-26 75
q-10 32 -25 87l-21 77q-6 21 -22.5 85.5t-19.5 77.5l-3 12l-6 -15q-9 -27 -54 -185q-35 -122 -59 -190q-5 -15 -21 -53q-9 -23 -16 -36l-9 -16q-4 -6 -9 -10q-15 -16 -37 -16q-24 0 -39 18q-5 6 -8 12t-6 15q-3 8 -8 28q-12 44 -17 58q-27 72 -53 188q-2 8 -13.5 62.5
t-18.5 83.5q-4 -14 -18 -73l-19 -80l-20 -72q-13 -50 -22 -80t-22.5 -71t-26.5 -76q-8 -19 -27 -27.5t-38 -1t-27.5 26.5t-1.5 38z" />
    <glyph glyph-name="N" unicode="N" horiz-adv-x="730" 
d="M26 7q-10 193 -7 277q1 21 5 82q4 48 4 77q0 34 5 87q6 66 7 79q0 1 -1 3q0 2 -1.5 8.5t-2.5 9.5q-3 19 0 34q4 18 17.5 30.5t33.5 14.5q58 5 106 -52q12 -15 27 -36q16 -25 17 -26l68 -92l75 -101l63 -91q38 -55 66 -102q14 -24 43 -79q1 12 1 28v44l6 120l6 127
q3 48 5 116t2 126q0 21 14.5 35.5t35.5 14.5t35.5 -14.5t14.5 -35.5q0 -58 -2 -126.5t-5 -116.5l-6 -130l-6 -120v-12v-12v-16q0 -36 -3 -62q-5 -41 -19 -68q-23 -44 -67 -53q-19 -4 -36 6q-5 3 -9 7q-3 4 -6 7q-2 3 -5 8t-9 14l-23 44q-38 71 -53 96q-31 51 -64 101l-63 89
l-73 98l-66 90q-4 5 -19 29q-1 -9 -2.5 -24.5t-1.5 -18.5q-5 -48 -5 -78q0 -32 -4 -84q-4 -60 -5 -79q-2 -70 7 -267q1 -21 -12.5 -36.5t-34.5 -16.5t-36.5 12.5t-16.5 34.5z" />
    <glyph glyph-name="O" unicode="O" horiz-adv-x="770" 
d="M338 746q16 13 36 11q211 -20 291 -136q81 -118 22 -320q-14 -47 -35 -93t-54 -94t-72 -85t-92 -63q-52 -25 -110 -28q-85 -5 -173 46q-61 35 -95 96.5t-44 135.5q-9 66 0.5 135.5t33.5 126.5q40 92 118.5 167.5t173.5 100.5zM381 653q-74 -13 -141 -74
q-68 -61 -102 -141q-19 -45 -26 -100q-8 -56 -1 -109q16 -116 90 -159q62 -35 117 -32q63 4 120 48.5t94 107.5q38 61 59 135q46 157 -8 235q-50 73 -194 91q-4 -2 -8 -2z" />
    <glyph glyph-name="P" unicode="P" horiz-adv-x="622" 
d="M130 332h4q18 1 55 2t60.5 3.5t45.5 7.5q47 13 86.5 35t61.5 49q43 55 -7 124q-8 10 -31 32t-31 27q-87 53 -256 48q1 -26 2.5 -55.5t3 -65t2.5 -55.5q5 -98 4 -152zM57 758q57 3 91 3q37 0 89.5 -4.5t100 -19t88.5 -39.5q18 -11 48 -40t42 -47q48 -69 47.5 -130.5
t-42.5 -113.5q-34 -43 -88 -73t-114 -45q-26 -7 -57 -10.5t-72 -4.5t-50 -2q-7 0 -14 1q-2 -19 -9 -100t-8 -129q0 -21 -15 -35t-36 -14t-35 15t-14 36q1 52 8 136q9 99 11 130q5 81 -1 207q-9 184 -10 203q-6 11 -7 23q-1 21 13 36.5t34 16.5z" />
    <glyph glyph-name="Q" unicode="Q" horiz-adv-x="780" 
d="M446 -25q-21 -6 -43 -9q-72 -12 -118 -5q-64 10 -113.5 37.5t-80 67t-50 86.5t-26 100t-6 101.5t8.5 97.5q22 149 117 219q50 37 107.5 53t128.5 23h1q14 6 29 3q157 -28 238.5 -134t81.5 -265q0 -160 -78 -257q-40 -50 -99 -81q40 -49 83 -96q14 -15 13 -36t-16 -35
t-36 -13t-35 16q-56 62 -107 127zM381 646q-126 -12 -186 -56q-62 -46 -79 -155q-12 -67 -6.5 -130.5t24.5 -114.5t62 -86t105 -45q29 -4 80 4q-32 47 -64 99q-11 17 -6.5 37t22 31t37.5 6.5t31 -22.5q41 -64 82 -121q51 23 82 63q56 69 56 194q0 123 -57.5 199.5
t-170.5 99.5q-6 -2 -12 -3z" />
    <glyph glyph-name="R" unicode="R" horiz-adv-x="719" 
d="M50 759q166 26 309 -2q44 -8 81.5 -22t74 -36.5t62.5 -58t37 -79.5q20 -83 -21 -148q-52 -83 -187 -128q137 -70 244 -211q12 -16 9.5 -36.5t-19 -33t-37 -10t-33.5 19.5q-74 97 -166 157q-93 61 -195 71l-62 -9q-6 -1 -12 -1q0 -18 -2 -41q-5 -114 -5 -159
q0 -21 -14.5 -35.5t-35.5 -14.5t-35.5 14.5t-14.5 35.5q0 48 6 164q4 100 3 157q-2 58 -8 166.5t-8 155.5q-11 11 -13 28q-4 20 8.5 36.5t33.5 19.5zM147 343q29 2 58 0q87 14 145 30q122 35 159 94q18 28 7 70q-22 92 -176 122q-98 19 -218 8l8 -147q5 -107 7 -165v-14
q5 2 10 2z" />
    <glyph glyph-name="S" unicode="S" 
d="M499 582q-61 46 -124.5 65.5t-125.5 6.5t-109 -61q-12 -14 -25 -34.5t-14 -28.5q-2 -11 2 -17.5t17 -13.5q24 -12 84 -19q12 -2 60 -6.5t86 -10.5t70 -16q145 -42 181 -167q14 -58 5.5 -104.5t-38.5 -83.5t-68.5 -62t-84.5 -40q-59 -20 -124 -23.5t-129 13t-109 52.5
q-11 9 -20.5 19.5t-17.5 23.5l-13 21q-4 7 -12 22l-8 16q-10 19 -4 38.5t24.5 29.5t38 4t29.5 -24q4 -7 10.5 -20.5t9 -18t7.5 -12t9.5 -12.5t10.5 -9q42 -35 117.5 -42t148.5 17t105 68q33 44 17 99q-11 39 -39 62q-28 24 -74 37q-28 9 -59.5 13.5t-76.5 9.5l-64 6
q-77 10 -116 30q-37 18 -58.5 51t-16.5 81q4 30 29 69q18 30 38 50q53 56 119 80.5t131.5 17.5t126 -32t114.5 -65q17 -12 19.5 -32.5t-9.5 -37.5t-32.5 -19.5t-37.5 9.5z" />
    <glyph glyph-name="T" unicode="T" horiz-adv-x="665" 
d="M16 719q69 2 197 -7t187 -8q22 0 44.5 3.5t53.5 9t51.5 8t37 -10t19 -33t-10 -37t-32.5 -19.5q-13 -1 -46 -7t-61.5 -10t-53.5 -4q-35 -1 -79 1q9 -207 8 -284q-1 -38 -4.5 -108.5t-4 -103t3.5 -100.5q2 -21 -11 -37t-34 -18t-37 11t-18 34q-4 73 -3.5 110.5t4 110
t4.5 103.5q1 72 -8 288l-17 1q-122 9 -186 7q-21 -1 -36 13.5t-16 35t13.5 35.5t34.5 16z" />
    <glyph glyph-name="U" unicode="U" horiz-adv-x="690" 
d="M101 657q1 -30 -0.5 -128t0.5 -154q2 -88 11 -145q9 -62 25 -86q25 -37 70 -62t97 -31t96 10q45 16 72 52q52 69 59 248q5 127 -14 287q-2 21 11 37t33.5 18.5t36.5 -10.5t19 -33q19 -168 14 -303q-8 -210 -79 -304q-46 -61 -115 -85.5t-145 -15.5q-72 8 -135 44
q-64 35 -102 92q-29 43 -42 127q-10 64 -12 157q-2 56 -0.5 153.5t0.5 127.5q-1 21 13.5 36t35 16t35.5 -13.5t16 -34.5z" />
    <glyph glyph-name="V" unicode="V" horiz-adv-x="604" 
d="M83 721l71 -239q62 -204 87 -313q2 -10 13 -44l17 33q13 28 16 45q8 38 15 60q9 26 40 108q24 63 36 103l19 66q15 52 27 87q11 34 25 68q8 19 27.5 26.5t38.5 -0.5t26.5 -27.5t-0.5 -38.5q-13 -30 -23 -61t-24 -81l-20 -67q-12 -41 -39 -110q-28 -74 -37 -105
q-6 -16 -13 -49q-6 -28 -24 -66q-9 -20 -26 -49l-24 -43q1 0 -3 -18q-5 -19 -14 -31q-22 -29 -58 -22q-16 3 -27 14q-4 4 -8 9q-3 5 -6 11q-3 8 -8 20l-18 52q-21 65 -26 88q-25 109 -85 310l-71 236q-6 20 4.5 38.5t30 24t38 -5t23.5 -29.5z" />
    <glyph glyph-name="W" unicode="W" horiz-adv-x="957" 
d="M82 712q47 -120 73 -242q7 -33 21 -123q12 -76 22 -115l10 -38l5 14q54 146 124 385l18 63l8 29q2 7 3 10t2 5q1 3 2 5q2 4 4 7q12 17 33 20q29 5 52 -16q12 -10 21 -27q12 -21 24 -57q14 -44 23 -91q42 -218 99 -362l16 45q19 53 56 192q35 131 63 201q12 33 20 50
q8 18 13 26l7 20q6 19 24.5 28.5t38 3t29 -25t2.5 -38.5l-17 -51l-4 -14l-1 -4q-1 -1 -1 -2q-1 -4 -5 -10q-3 -5 -8 -9l-2 -2l-4 -8q-25 -65 -58 -190q-38 -143 -59 -201q-1 -2 -6 -16l-11 -33q-6 -17 -12 -33q-13 -33 -22 -52q-6 -13 -12 -22q-6 -7 -12 -13
q-15 -14 -35 -14q-22 0 -38 16q-5 4 -9 10.5t-9 17.5q-7 14 -17 37l-4 10q-2 6 -3.5 11t-3.5 9.5t-3 8t-2 6t-1.5 4t-0.5 2.5q-62 154 -106 384q-1 6 -4 16q-65 -222 -118 -365q-18 -48 -31 -80q-13 -33 -23 -50q-8 -14 -14 -22q-7 -8 -14 -13q-20 -14 -43 -9q-16 4 -26 16
q-4 3 -6 8q-2 3 -3 6q-1 2 -2 5q-1 2 -2 6q-2 6 -4 16l-12 48q-21 84 -25 101q-13 47 -25 126q-14 90 -20 118q-24 113 -69 226q-7 19 1 38t27.5 26.5t38.5 -0.5t27 -28z" />
    <glyph glyph-name="X" unicode="X" horiz-adv-x="654" 
d="M250 362q-58 98 -113.5 171t-125.5 133q-16 13 -17.5 34t11.5 36.5t34 17t36 -11.5q125 -106 241 -295l181 238q12 16 32.5 19.5t37 -9t20 -33t-9.5 -37.5l-206 -270l67 -113q22 -36 63 -95t81 -104q14 -15 13 -35.5t-16.5 -34.5t-36 -13t-34.5 17q-56 62 -102 131
t-101 162l-242 -297q-13 -16 -33.5 -18t-36.5 11.5t-18 34t12 36.5z" />
    <glyph glyph-name="Y" unicode="Y" horiz-adv-x="641" 
d="M571 667q-7 -8 -13.5 -16.5t-13.5 -20.5l-12 -16q-3 -6 -12 -21.5t-11 -18.5t-12.5 -22.5t-11.5 -20.5q-64 -113 -169 -282l-38 -65l-44 -73q-18 -28 -44.5 -66t-51.5 -67q-13 -16 -34 -18t-36.5 11.5t-17.5 34.5t12 36q22 26 45 59.5t37 56.5l41 66l38 64l-222 378
q-10 18 -4.5 38t23.5 30.5t38 5t31 -23.5l194 -332l114 195q2 3 12 21t13 23t11.5 20.5t14 23t13.5 20t16 23.5l16 21q13 16 34 18t37 -11t18 -34t-11 -37z" />
    <glyph glyph-name="Z" unicode="Z" horiz-adv-x="630" 
d="M67 69v-1v1zM9 712q117 22 237 28q43 2 115 2q75 0 106 1h1q3 2 18 5q54 12 77 -31q9 -20 2 -41q-2 -7 -6 -14q-5 -9 -13 -20l-35 -44l-59 -66l-165 -174q-93 -100 -152 -178q-19 -26 -43 -65q-7 -12 -13 -21q6 0 16.5 1t17.5 1q272 13 414 -3q20 -3 33 -19t10.5 -36.5
t-18.5 -33.5t-37 -11q-134 16 -398 3q-51 -2 -59 -2q-69 6 -87 61q-7 18 0 40q3 11 9 25q9 19 26 47q27 43 49 73q62 82 159 186l164 174l38 42q-141 -1 -166 -2q-111 -5 -223 -26q-20 -4 -37 7.5t-21 32t7.5 37.5t32.5 21z" />
    <glyph glyph-name="bracketleft" unicode="[" horiz-adv-x="319" 
d="M212 688q-54 -2 -55 -2q-17 -1 -28 -1l-1 -3q-5 -19 -7 -53q-1 -17 -1 -110v-323q1 -115 3 -193q1 -42 3 -64q1 -5 1 -7q2 0 6.5 -3t18 -7.5t33.5 -6.5q20 -3 33 -19t10.5 -36.5t-18.5 -33.5t-37 -11q-2 1 -14.5 1.5t-21.5 1.5t-24.5 5.5t-27.5 10.5t-25 18t-22 28
q-6 10 -9 28q-1 9 -2 24q-2 25 -4 68q-2 72 -3 195v324q0 96 1 116q3 44 11 73q12 48 42 67q5 3 9.5 5t6.5 2h3q2 1 4 1h5q5 1 14 1q14 1 37 2q1 0 55 2q21 1 36 -13t16 -35t-13 -36t-35 -16z" />
    <glyph glyph-name="backslash" unicode="\" horiz-adv-x="368" 
d="M13 725q1 -3 48 -134q28 -78 52 -126q2 -4 10 -15q12 -18 18 -31q22 -49 49.5 -124.5t53 -134.5t57.5 -109q11 -18 6.5 -38t-22 -31t-37.5 -6.5t-31 21.5q-34 53 -63.5 120.5t-58.5 145t-46 116.5q-1 4 -8 14q-13 17 -18 28q-25 49 -56 136q-47 130 -48 132q-7 19 1.5 38
t27.5 26.5t38 -1t27 -27.5z" />
    <glyph glyph-name="bracketright" unicode="]" horiz-adv-x="276" 
d="M4 769q11 1 80 3q30 2 49 2q11 1 16 1h6h3h3q2 0 4 -1q4 0 7 -1q10 -3 19 -11q14 -13 19 -36q2 -9 3 -24q2 -21 3 -56q1 -22 1 -54v-36q3 -84 -7 -252q-10 -172 -10 -244v-32v-16v-7q0 -6 0.5 -8t1.5 -14.5t2 -30.5v-2q0 -1 0.5 -1.5t1.5 -4.5t3 -11q8 -39 -13 -65
q-11 -14 -30 -20q-9 -4 -21 -5q-16 -3 -39 -3h-22h-22l-10 1q-21 0 -35 15t-14 36t15 35t36 14q1 0 9.5 -0.5t19.5 -0.5h21h1q-1 3 -1 6q-1 17 -2 30.5t-1.5 15.5t-0.5 10v8v18v32q0 74 10 250q9 158 7 244v35q0 32 -1 54q0 19 -1 31l-27 -1q-68 -3 -78 -4
q-21 -1 -36.5 12.5t-16.5 34.5t12.5 36.5t34.5 16.5z" />
    <glyph glyph-name="asciicircum" unicode="^" horiz-adv-x="482" 
d="M37 461l131 202q0 1 0.5 1.5t0.5 2t1.5 6t4.5 11.5q20 54 68 51q47 -3 63 -55q2 -8 3.5 -13t1.5 -6.5t0.5 -3t1.5 -3.5q77 -154 104 -203q10 -18 4 -38t-24 -30t-38 -4t-30 24q-29 53 -93 181l-115 -175q-10 -18 -30.5 -22.5t-38 6t-22 31t6.5 37.5z" />
    <glyph glyph-name="underscore" unicode="_" horiz-adv-x="584" 
d="M11 -28q39 2 120 1q73 -1 112 2q30 2 110 13q75 11 122 11q21 0 35.5 -14.5t14.5 -35.5t-14.5 -35.5t-35.5 -14.5q-36 0 -108 -10q-84 -12 -118 -14q-44 -3 -119 -2q-72 1 -113 -1q-21 -1 -36.5 13t-16.5 34.5t13 36t34 16.5z" />
    <glyph glyph-name="grave" unicode="`" horiz-adv-x="265" 
d="M68 743q92 -94 121 -121q16 -14 17 -34.5t-13 -36t-34.5 -16.5t-35.5 13q-33 29 -127 125q-14 15 -14 35.5t15 35t35.5 14.5t35.5 -15z" />
    <glyph glyph-name="a" unicode="a" horiz-adv-x="514" 
d="M320 107q-26 103 -40 281q-31 10 -44.5 14t-32 4.5t-35.5 -6.5q-35 -15 -59.5 -64t-26.5 -114q-1 -64 21 -107.5t59 -54.5q16 -5 29 -5.5t31 5.5t26 9.5t35 18t37 19.5zM376 444q8 -99 13 -151t21.5 -130t40.5 -137q8 -19 0 -38t-27 -27t-38 0t-27 27l-9 21l-36 -19
q-13 -7 -37.5 -17t-44.5 -13.5t-46 -3t-52 7.5q-41 12 -72.5 40t-48 65t-24.5 76.5t-7 79.5q3 85 40 161.5t107.5 106t175.5 -7.5q8 4 17 5q21 1 36.5 -12t17.5 -34z" />
    <glyph glyph-name="b" unicode="b" horiz-adv-x="568" 
d="M109 29v-16q0 -21 -14.5 -35.5t-35.5 -14.5t-35.5 14.5t-14.5 35.5q0 466 8 699q1 20 16 34.5t35.5 13.5t35 -16t13.5 -36q-5 -131 -6 -285q27 17 81 32q132 37 216 -15q91 -55 101 -194q6 -92 -38 -159t-134 -94q-70 -21 -118 -11q-36 8 -110 47zM109 289v-153
q9 -1 17 -4q21 -10 44 -22l37 -20q15 -7 32 -10q24 -5 70 9q109 33 100 149q-6 89 -53 117q-47 29 -138 4q-40 -11 -54 -21q-4 -3 -42 -40q-6 -5 -13 -9z" />
    <glyph glyph-name="c" unicode="c" horiz-adv-x="479" 
d="M337 305q-48 41 -83 61t-65 14q-34 -7 -62 -57q-31 -54 -34 -123q-3 -67 23 -105q23 -34 71 -29q17 1 39.5 11t35.5 19l46 29q17 11 38 7q20 -4 31 -21.5t7 -38t-22 -31.5q-1 -1 -14 -9l-18 -12l-18 -12q-14 -8 -22 -12l-20 -10q-14 -6 -24 -9l-24 -7q-13 -3 -25 -4
q-107 -10 -164 73q-44 65 -40 166q5 92 47 167q50 90 129 106q15 3 29.5 3.5t29.5 -2.5l27 -5q12 -3 27 -11t24.5 -12t24.5 -15l21 -14q6 -4 20 -15.5t16 -13t15 -12.5q15 -14 16.5 -34.5t-12 -36t-34 -17t-36.5 11.5z" />
    <glyph glyph-name="d" unicode="d" horiz-adv-x="524" 
d="M361 133q-1 31 -2 90.5t-1 88.5q-99 81 -176 48q-34 -14 -60.5 -49t-40.5 -81q-12 -47 -8.5 -85.5t21.5 -61.5q40 -51 151 -7q64 26 116 57zM443 699q-1 -34 0 -74t2.5 -66.5t4.5 -74.5t4 -70q3 -62 5 -189q2 -128 6 -195q1 -21 -12.5 -36.5t-34.5 -16.5q-20 -1 -35 12
t-18 32q-38 -20 -82 -37q-88 -36 -157.5 -26t-110.5 64q-36 46 -42.5 113t12.5 123q19 64 59 116.5t98 77.5q100 43 211 -16q-11 192 -10 265q0 21 15 35t36 14t35 -15t14 -36z" />
    <glyph glyph-name="e" unicode="e" horiz-adv-x="552" 
d="M131 258q71 34 240 95q-10 16 -17 22t-23 11q-52 17 -79 18q-32 1 -69 -43q-35 -43 -52 -103zM471 293q-9 -13 -25 -19l-80 -29q-65 -24 -90 -34l-70 -29q-46 -20 -81 -40q3 -10 7 -18q21 -46 82 -54q40 -6 73 7q17 6 32.5 16t37.5 26t41 27q17 11 37.5 6.5t31 -22t6 -38
t-22.5 -30.5l-32 -23q-25 -18 -49 -32.5t-46 -23.5q-56 -22 -123 -13q-115 16 -159 112q-35 76 -12 180q21 93 77 162q67 82 148 80q42 -1 109 -22q26 -9 47.5 -25.5t31 -28.5t24 -35.5t18.5 -28.5q12 -17 8.5 -37.5t-20.5 -32.5z" />
    <glyph glyph-name="f" unicode="f" horiz-adv-x="377" 
d="M260 634q-45 7 -63.5 5t-28.5 -16q-11 -16 -16 -87q-3 -31 -4 -67l54 7q21 4 37.5 -8.5t20 -33t-9 -37t-32.5 -19.5q-28 -5 -70 -10v-4q1 -99 14 -309q1 -21 -12.5 -36.5t-34.5 -16.5t-36.5 12.5t-16.5 34.5q-12 207 -14 305q-25 -3 -46 -7t-38 8t-20.5 32.5t8.5 37.5
t32 20q28 5 64 10q1 51 4 89q8 96 32 133q15 23 35.5 37t38 19.5t41.5 6t36.5 -1t31.5 -4.5q6 -1 9 -2q20 -3 32.5 -19.5t9 -37t-20 -33t-37.5 -8.5z" />
    <glyph glyph-name="g" unicode="g" horiz-adv-x="542" 
d="M376 412q-75 3 -115.5 -3t-73.5 -38q-17 -16 -32.5 -54.5t-20.5 -82.5q-4 -45 5.5 -72t26.5 -36q22 -10 91 21q22 10 44 22l46 26l29 17q3 2 7 3q2 91 -7 197zM473 457q18 -188 6 -334q-9 -111 -37 -185q-38 -99 -110 -127q-20 -8 -45 -12.5t-46 -5.5t-50.5 0.5t-45 3
t-43.5 5t-34 3.5q-21 3 -34 19t-10.5 36.5t18.5 33.5t36 11l38 -5q30 -3 42 -4l38 -3q24 -2 38 -1t31 3.5t31 7.5q31 13 53 71q18 48 27 122q-46 -25 -78 -40q-111 -50 -174 -20q-30 14 -50 39q-21 25 -29 53.5t-11 59.5t1 57q6 57 28 112t54 86q17 16 36.5 28.5t36.5 20
t40 12.5t37.5 7t39.5 2.5t36 0t36.5 -2t31.5 -1.5q17 -1 29 -11q30 -11 33 -42z" />
    <glyph glyph-name="h" unicode="h" horiz-adv-x="543" 
d="M136 303q-5 -226 -5 -251q0 -21 -14.5 -35.5t-35.5 -14.5t-35.5 14.5t-14.5 35.5q0 60 4.5 201.5t2 241t-16.5 191.5q-4 21 8.5 37.5t33 20t37 -9t19.5 -32.5q17 -105 19 -243q24 25 45 41t56.5 30t71.5 13q85 -2 124 -70q28 -47 30 -127q2 -43 -5 -125q-6 -69 -4 -87
q1 -11 2 -18q1 -8 4 -18l4 -14q2 -5 7.5 -19t7.5 -21q7 -20 -2 -38.5t-28.5 -25.5t-38 2t-25.5 28q-2 5 -7.5 20.5t-7.5 21.5l-6 20q-4 13 -6 25t-4 27q-3 28 4 105q6 76 5 114q-1 54 -16 79q-12 20 -40 21q-26 1 -49 -13t-54 -44l-10 -10q-24 -23 -38 -44q-11 -14 -19 -26
q-1 -2 -3 -3z" />
    <glyph glyph-name="i" unicode="i" horiz-adv-x="240" 
d="M168 429q-3 -36 -1 -108q2 -80 0 -115q-1 -33 -7 -93t-7 -77q-2 -20 -17.5 -33.5t-36 -12t-34 17t-12.5 36.5q1 17 7 75.5t7 90.5t0 109q-2 74 1 116q2 21 17.5 34.5t36 12t34 -17t12.5 -35.5zM181 633q0 -21 -14.5 -35.5t-35.5 -14.5t-35.5 14.5t-14.5 35.5t14.5 35.5
t35.5 14.5t35.5 -14.5t14.5 -35.5z" />
    <glyph glyph-name="j" unicode="j" horiz-adv-x="230" 
d="M142 432q11 -140 14 -255q0 -9 12 -117q8 -83 -2 -135q-16 -77 -49 -114q-43 -48 -101 -29q-41 13 -73 55t-50 94q-7 20 2 38.5t28.5 25.5t38 -2t25.5 -28q14 -37 29 -59q16 -22 27 -28q15 17 25 67q7 37 0 105q-12 117 -12 125q-3 111 -14 249q-1 21 12 36.5t34 17
t36.5 -11.5t17.5 -34zM135 607q0 -21 -14.5 -35.5t-35.5 -14.5t-35.5 14.5t-14.5 35.5t14.5 35.5t35.5 14.5t35.5 -14.5t14.5 -35.5z" />
    <glyph glyph-name="k" unicode="k" horiz-adv-x="463" 
d="M128 678q7 -137 6 -332l48 42q86 73 117 105q15 15 35.5 15t35.5 -14.5t15 -35t-14 -35.5q-35 -35 -125 -112l-9 -8q29 -42 81 -125l78 -123q11 -17 7 -37.5t-21 -32t-37.5 -7.5t-32.5 21l-150 237l-28 -31l-2 -1q-1 -110 -1 -172q0 -21 -14.5 -35.5t-35.5 -14.5
t-35.5 14.5t-14.5 35.5q0 62 2 199.5t1 241.5q-1 91 -6 199q-1 21 13 36.5t34.5 16.5t36 -13t16.5 -34z" />
    <glyph glyph-name="l" unicode="l" horiz-adv-x="199" 
d="M123 697q10 -77 10.5 -173.5t-3.5 -169.5q-8 -216 9 -325q4 -21 -8.5 -37.5t-33 -20t-37 9t-19.5 32.5q-13 78 -14 175q-1 95 3 170t3.5 165t-10.5 160q-2 21 10.5 37.5t33 19t37 -10t19.5 -32.5z" />
    <glyph glyph-name="m" unicode="m" horiz-adv-x="756" 
d="M593 418q-11 -2 -18 -2q-41 -2 -73 -19.5t-86 -58.5q2 -29 1 -64q-2 -122 -23 -237q-3 -20 -20 -32t-37.5 -8.5t-32.5 20.5t-8 38q18 103 21 221q2 75 -7 115q-4 17 -9 26q-7 -2 -18 -6q-22 -11 -54 -36q-25 -18 -58 -48q-44 -39 -46 -40l-2 -2q-3 -96 -17 -273
q-2 -21 -17.5 -34t-36.5 -11.5t-34 17t-12 36.5q23 280 17 422q-1 21 13 36t35 16t36 -13t16 -35q0 -13 1 -27l44 36q40 31 73 46q50 24 89 13q45 -11 66 -66q89 64 175 68q2 0 9 1q12 2 18 2q36 2 59 -17q22 -18 32 -54q6 -24 7 -59q3 -54 -4 -141q-4 -43 -10 -92l-12 -92
q-5 -42 -6 -51q-3 -20 -19 -33t-36.5 -10.5t-33.5 18.5t-11 37q1 8 7 49.5t11.5 90.5t9.5 92q7 80 4 127q-1 21 -3 34z" />
    <glyph glyph-name="n" unicode="n" horiz-adv-x="529" 
d="M108 342q13 -121 -2 -308q-2 -21 -17.5 -34t-36.5 -11.5t-34 17t-12 36.5q21 267 -19 411q-6 19 4.5 37.5t30 24t38 -5t23.5 -30.5l4 -12q16 13 43 29q46 27 116 45q1 0 10.5 2.5t14.5 3.5t16.5 3t19.5 2t20 -0.5t22 -3t21 -8t21 -12.5q43 -33 58 -109q9 -51 8 -131
q0 -7 -6 -126q-2 -63 1 -85q1 -5 2.5 -9.5t5.5 -13t7 -19.5q7 -20 -2 -38.5t-29 -25t-38.5 2.5t-24.5 29l-5 11q-5 12 -9 24.5t-5 22.5q-6 32 -3 105q6 118 6 124q1 70 -7 110q-7 39 -19 48q-8 5 -18.5 4t-42.5 -9q-56 -13 -90 -33q-12 -7 -18 -12q-7 -4 -14 -10.5t-10 -9.5
t-13 -15.5t-17 -20.5z" />
    <glyph glyph-name="o" unicode="o" horiz-adv-x="530" 
d="M194 493q8 2 16 2h9q34 -1 55 -2.5t55.5 -12t60.5 -29.5q32 -24 51.5 -58.5t25.5 -72.5t3.5 -75.5t-12.5 -73.5q-22 -76 -72 -136q-51 -60 -120 -73q-56 -11 -103 4t-78 48.5t-50.5 74.5t-26.5 86q-8 42 -1.5 90t22 90.5t49.5 78t81 52.5q16 6 35 7zM233 394q-2 0 -30 -1
q-8 0 -10 -1q-48 -17 -72.5 -74.5t-13.5 -127.5q11 -69 48.5 -104.5t92.5 -25.5q33 6 65.5 44t48.5 94q16 58 7 104t-39 69q-28 21 -96 23h-1z" />
    <glyph glyph-name="p" unicode="p" horiz-adv-x="538" 
d="M116 24q2 -133 12 -243q2 -20 -11.5 -36t-34 -18t-36.5 11.5t-18 34.5q-12 143 -13 328.5t3 326.5q0 21 15 35t36 14t35 -15t14 -36v-6q24 15 86 33q140 40 214 -54q54 -67 58 -195q0 -3 1 -9q1 -12 2 -16q2 -30 -7 -52q-30 -69 -101 -111q-70 -41 -147 -30
q-38 5 -108 38zM379 165v5q0 2 -1 13q-2 11 -2 19q-3 93 -36 135q-33 41 -108 20q-50 -14 -60 -22q-3 -2 -36 -42q-9 -10 -20 -14q-1 -84 -1 -147q5 -1 11 -3q21 -8 43.5 -19t37.5 -17t31 -9q41 -5 82.5 18.5t58.5 62.5z" />
    <glyph glyph-name="q" unicode="q" horiz-adv-x="520" 
d="M348 149q0 108 6 194q-55 22 -89 28q-56 9 -88 -17q-26 -21 -52.5 -67t-37.5 -95q-23 -102 36 -131q28 -14 65 -4q15 3 30 9.5t33 17.5l29 18l35 24zM461 410q-11 -95 -12.5 -196.5t1.5 -245t3 -202.5q0 -21 -14.5 -35.5t-35.5 -14.5t-35.5 14.5t-14.5 35.5q0 16 -4 262
q-80 -54 -137 -69q-27 -7 -65.5 -4.5t-67.5 16.5q-36 18 -59 47t-31 62.5t-7.5 66.5t8.5 67q14 64 48.5 124.5t76.5 93.5q66 53 165 38q40 -7 91 -26q17 24 45 21q21 -3 34 -19t11 -36z" />
    <glyph glyph-name="r" unicode="r" horiz-adv-x="410" 
d="M133 274q0 -40 -2 -84l-5 -95q-2 -52 -3 -79q-1 -21 -16 -35t-36 -13t-35 16t-13 36l5 108q4 86 5 122t-1 98.5t-9 112.5q-2 21 10.5 37.5t33 19t37 -10t19.5 -32.5q3 -25 5 -51q69 63 164 82q20 4 37 -7.5t21 -32t-7.5 -37.5t-32.5 -21q-56 -11 -97.5 -43t-78.5 -90z
" />
    <glyph glyph-name="s" unicode="s" horiz-adv-x="477" 
d="M354 447q-5 0 -37 -3t-47 -5t-41.5 -6.5t-47.5 -9.5q-83 -23 -88 -65q-1 -3 -1 -6v-5v-3q0 -1 1 -2q6 -8 36 -19q1 0 9.5 -2.5t34.5 -10t49 -14.5q31 -9 53 -17.5t52 -24t51 -39t32 -53.5q21 -59 -11 -108q-23 -36 -73 -61q-74 -35 -158 -37q-19 0 -38 2.5t-39.5 9.5
t-31.5 11.5t-32.5 14.5t-25.5 11q-19 8 -26.5 27.5t0.5 38.5t27.5 26.5t38.5 -0.5q8 -4 29 -13l28 -12q7 -3 21.5 -8t25 -6.5t21.5 -1.5q62 1 116 27q25 12 33 25q5 8 1 20q-8 22 -37 39t-85 33q-94 27 -98 29q-63 22 -86 57q-23 33 -17 84q14 109 162 149q24 7 55 12t48 7
t51 5.5t35 3.5q21 2 37 -11t18 -34t-11 -37t-34 -18z" />
    <glyph glyph-name="t" unicode="t" horiz-adv-x="326" 
d="M150 612q-4 -46 -2 -111q36 1 69 1q21 0 35.5 -14.5t14.5 -35.5t-14.5 -35.5t-35.5 -14.5q-32 0 -65 -1q2 -61 1 -100q-1 -27 -4.5 -73t-3.5 -64.5t5 -59.5q2 -12 5 -19l1 -1q2 0 4 -0.5t4.5 -1t3.5 -1.5q11 -2 19 -5q19 -7 28 -25.5t2 -38t-25.5 -28.5t-38.5 -2
q-2 1 -7 2q-14 3 -15 3q-28 7 -45 24q-24 22 -34 73q-6 50 -6.5 76.5t3.5 78t4 64.5q1 39 -1 95q-41 -1 -91 -4q-21 -1 -36.5 13t-16.5 34.5t13 36t34 16.5q58 3 93 4q-2 70 2 122q2 21 17.5 34t36.5 11.5t34 -17t12 -36.5z" />
    <glyph glyph-name="u" unicode="u" horiz-adv-x="531" 
d="M109 460q-13 -129 -12 -218q0 -72 9 -118q6 -38 16 -50q9 -3 17 -5q23 -4 53 -5q29 -1 54 3l23 5q4 2 19 24q61 91 68 242q2 46 4 73q1 23 2 36q1 9 2 15q1 5 3 9q1 5 4 10q8 14 22 21q33 16 59 -9q12 -11 16 -27q4 -12 4 -30q1 -23 -3 -64l-2 -26q-1 -14 -2.5 -25
t-2.5 -20t-1.5 -14.5t-0.5 -6.5q-10 -109 4 -254q2 -21 -11 -37t-34 -18t-37 11t-18 34l-1 13q-20 -29 -42 -43q-21 -13 -62 -18q-32 -5 -69 -4q-39 1 -70 7q-43 9 -65 28q-34 31 -48 108q-10 54 -10 134q0 109 12 229q2 21 18.5 34t37 11t33.5 -18.5t11 -36.5z" />
    <glyph glyph-name="v" unicode="v" horiz-adv-x="485" 
d="M139 -9l-17 57q-11 36 -54 168q-46 140 -65 215q-6 20 4.5 38t30.5 23.5t38 -4.5q18 -11 23 -31q14 -54 33 -112l42 -131l36 -111q12 33 51 152t70 185q9 18 28.5 25t38 -2t25.5 -28.5t-2 -38.5q-29 -60 -65 -172q-45 -138 -64 -185q-4 -11 -23 -54q-1 -1 -1 -2v-3
q0 -1 -1 -5.5t-3 -12.5q-13 -57 -63 -58q-38 -1 -54 33q-7 14 -8 33v10v8v3z" />
    <glyph glyph-name="w" unicode="w" horiz-adv-x="700" 
d="M88 451l22 -130q7 -41 22 -110t33 -124l1 -3l19 52q38 110 53 165q3 14 13 66q4 20 6.5 29t5.5 16q4 8 10 14q17 19 43 17q28 -3 43 -29q5 -9 9 -21q5 -15 10 -44q6 -31 20 -121q13 -84 21 -119q3 -11 5 -20q3 10 9 25q16 47 42 131l27 93l28 88q10 35 14 47
q7 20 25.5 29t38 2t28.5 -25.5t2 -37.5q-4 -12 -14 -46l-26 -87l-28 -93q-30 -96 -43 -134q-10 -30 -18 -48q-5 -11 -9 -19q-9 -15 -20 -23q-26 -17 -57.5 -17t-55.5 17q-20 13 -32 46q-7 19 -13 50q-8 33 -17 92l-26 -76q-22 -63 -39 -100q-10 -23 -18 -37q-6 -10 -12 -17
q-17 -17 -39 -19q-36 -2 -61 33q-11 15 -21 39q-8 17 -20 55q-18 58 -34.5 132t-23.5 115t-21 131q-4 21 8.5 37.5t33 20t37 -9t19.5 -32.5z" />
    <glyph glyph-name="x" unicode="x" horiz-adv-x="479" 
d="M221 164q-93 -114 -143 -201q-10 -18 -30 -23.5t-38 5t-23.5 30.5t5.5 38q55 96 170 237q-66 92 -130 160q-15 15 -14 35.5t16 35t35.5 13.5t34.5 -16q62 -64 123 -148q57 69 89 113q12 16 32.5 19.5t37 -9t20 -33t-9.5 -37.5q-40 -54 -109 -138l125 -193q11 -18 6.5 -38
t-22 -31t-37.5 -6.5t-31 21.5z" />
    <glyph glyph-name="y" unicode="y" horiz-adv-x="513" 
d="M450 426q-15 -40 -47 -102l-48 -93q-18 -39 -19 -45q-5 -21 -22 -64q-62 -156 -210 -342q-13 -16 -33.5 -18.5t-36.5 10.5t-18.5 33.5t10.5 36.5q83 105 133 191l-42 75q-34 59 -51 100q-8 18 -25.5 62.5t-30.5 73t-28 55.5q-11 18 -5.5 38t23.5 30.5t38 5t30 -23.5
q18 -30 32.5 -62.5t33.5 -80.5l24 -60q15 -34 46 -89l10 -17l8 18q13 35 16 49q4 16 27 66q3 7 49 97q29 57 44 92q7 20 26 28t38.5 0.5t27.5 -26.5t0 -38z" />
    <glyph glyph-name="z" unicode="z" horiz-adv-x="540" 
d="M39 477q22 0 74 3t80 2q119 -2 161 3q0 1 18 7q17 7 32 6q34 -1 51 -30q11 -19 5 -40q-2 -4 -4 -9l-4 -6q-2 -2 -4 -5l-9 -11l-24 -27l-36 -39q-152 -158 -205 -218l24 1q160 6 236 2q21 -1 34.5 -16.5t12.5 -36.5t-16.5 -34.5t-36.5 -12.5q-61 4 -226 -2q-46 -2 -100 -4
q-23 -2 -32 -2h-9h-5h-5l-8 2q-6 2 -10 4q-15 9 -22 25q-7 17 -1 35q1 5 3 9l4 6q2 2 4 5l10 11l26 29l36 39q59 68 195 208q-17 -1 -97 1q-22 1 -73 -2q-54 -3 -79 -3q-21 0 -35.5 14.5t-14.5 35.5t14.5 35.5t35.5 14.5z" />
    <glyph glyph-name="braceleft" unicode="{" horiz-adv-x="313" 
d="M225 701q-7 -4 -17 -7l-5 -2q-5 -2 -7 -3q-8 -3 -10 -5q-27 -23 -29 -96q-1 -23 2 -73q2 -52 1 -75q-6 -113 -65 -173q22 -16 30 -25q23 -23 37 -67q6 -21 9.5 -40.5t3.5 -40.5t-0.5 -33t-3 -34t-2.5 -27q-3 -36 2.5 -64t27.5 -61q11 -18 7 -38t-21.5 -31.5t-37.5 -7.5
t-32 21q-33 50 -41.5 94.5t-4.5 94.5q1 9 3 29.5t2.5 29t0.5 24t-2 28t-7 26.5q-6 22 -12 27q-3 3 -6 5.5t-11.5 8.5t-19.5 15q-1 1 -2 1h-2l-5 3q-4 2 -11 6q-45 24 -41 67q3 32 30 48q12 7 29 11l9 2q32 33 36 107q1 18 -1 64q-3 54 -2 81q3 116 63 169q15 13 39 22
q1 0 14 5q7 3 10 4q18 9 37.5 2t28.5 -25.5t2 -38t-26 -28.5z" />
    <glyph glyph-name="bar" unicode="|" horiz-adv-x="191" 
d="M116 753q14 -92 16 -212t-1 -208q0 -36 0.5 -217.5t-2.5 -217.5q-1 -21 -16 -35t-36 -13t-35 16t-13 36q4 37 3 216t-1 215q3 93 1 206.5t-14 199.5q-3 20 9 37t32.5 19.5t37.5 -9.5t19 -33z" />
    <glyph glyph-name="braceright" unicode="}" horiz-adv-x="388" 
d="M52 781q123 -48 143 -174q5 -29 7 -98q2 -60 7 -90q10 -58 25 -77q6 -7 25 -19l15 -4q18 -4 30 -12q29 -21 25 -56q-5 -34 -36 -48q-13 -6 -31 -7q-1 0 -4 -0.5t-5 -0.5q-8 -8 -16 -21q-10 -19 -14.5 -40t-5 -34t0 -43.5t-0.5 -45.5q-1 -62 -25.5 -111.5t-92.5 -91.5
q-17 -11 -37 -6.5t-31 22t-6.5 37.5t22.5 31q43 28 56.5 54.5t13.5 66.5q0 4 -0.5 39t1 54.5t9 53t22.5 60.5q12 23 27 39q-12 10 -20 21q-31 39 -45 121q-7 38 -9 105q-1 60 -5 84q-6 36 -23 59q-18 23 -58 40q-20 7 -28 26t-0.5 38.5t26.5 27.5t38 0z" />
    <glyph glyph-name="asciitilde" unicode="~" horiz-adv-x="540" 
d="M-4 367q52 85 109 102q69 19 149 -49l22 -23q6 -6 9 -8q35 -20 57 -9q23 12 43 56q9 19 28 26.5t38 -1t26.5 -27.5t-0.5 -38q-35 -78 -90 -105q-70 -35 -152 12q-15 8 -31 26q-14 14 -16 15q-38 33 -56 28q-19 -5 -50 -57q-11 -17 -31 -22.5t-37.5 5.5t-23 31t5.5 38z
" />
    <glyph glyph-name="quoteleft" unicode="&#x2018;" horiz-adv-x="251" 
d="M188 665q-12 -26 -34 -79l-33 -82q-9 -19 -28.5 -26t-38.5 1.5t-26 28t1 38.5q13 27 34.5 80.5t32.5 78.5q9 19 28 26.5t38 -1t26.5 -27.5t-0.5 -38z" />
    <glyph glyph-name="quoteright" unicode="&#x2019;" horiz-adv-x="241" 
d="M178 660l-30 -82q-22 -59 -35 -89q-8 -19 -27 -27t-38 0t-27 27t0 38q13 31 34 88.5t31 82.5q7 19 26 27t38.5 0.5t27.5 -26.5t0 -39z" />
    <glyph glyph-name="quotedblleft" unicode="&#x201c;" horiz-adv-x="379" 
d="M-8 515q35 114 60 175q7 19 26 27t38.5 0.5t27.5 -26.5t0 -39q-17 -42 -56 -167q-6 -19 -24.5 -29t-38 -4t-29.5 24.5t-4 38.5zM162 498q11 41 32 115l28 94q6 20 24 30t38 4t30 -24t4 -38l-28 -93q-21 -73 -32 -114q-5 -20 -23 -30.5t-38 -5t-30.5 23.5t-4.5 38z" />
    <glyph glyph-name="quotedblright" unicode="&#x201d;" horiz-adv-x="366" 
d="M147 657q-14 -28 -33 -73l-33 -80q-8 -19 -27.5 -26.5t-38.5 0.5t-27 28q-7 19 1 38l32 78q20 48 38 81q10 19 29.5 25t38 -4t24.5 -29.5t-4 -37.5zM301 640q-27 -53 -66 -144q-8 -19 -27.5 -26.5t-38.5 0.5t-26.5 27.5t0.5 38.5q40 94 70 150q9 18 29 24.5t38 -3
t24.5 -29.5t-3.5 -38z" />
    <glyph glyph-name="uni3000" unicode="&#x3000;" horiz-adv-x="1000" 
 />
  </font>
</defs>
</svg>
